<?xml version="1.0" encoding="UTF-8"?>
<svg xmlns="http://www.w3.org/2000/svg" xmlns:xlink="http://www.w3.org/1999/xlink" width="854pt" height="480pt" viewBox="0 0 854 480" version="1.1">
<defs>
<g>
<symbol overflow="visible" id="glyph0-0">
<path style="stroke:none;" d="M 0.40625 1.421875 L 0.40625 -5.6875 L 4.4375 -5.6875 L 4.4375 1.421875 Z M 0.859375 0.96875 L 3.984375 0.96875 L 3.984375 -5.234375 L 0.859375 -5.234375 Z "/>
</symbol>
<symbol overflow="visible" id="glyph0-1">
<path style="stroke:none;" d="M 4.828125 -5.6875 L 4.828125 -4.453125 C 4.503906 -4.597656 4.1875 -4.707031 3.875 -4.78125 C 3.570312 -4.851562 3.285156 -4.890625 3.015625 -4.890625 C 2.648438 -4.890625 2.378906 -4.835938 2.203125 -4.734375 C 2.035156 -4.640625 1.953125 -4.484375 1.953125 -4.265625 C 1.953125 -4.109375 2.007812 -3.984375 2.125 -3.890625 C 2.238281 -3.804688 2.453125 -3.734375 2.765625 -3.671875 L 3.40625 -3.546875 C 4.0625 -3.410156 4.523438 -3.207031 4.796875 -2.9375 C 5.078125 -2.675781 5.21875 -2.300781 5.21875 -1.8125 C 5.21875 -1.15625 5.023438 -0.671875 4.640625 -0.359375 C 4.253906 -0.046875 3.664062 0.109375 2.875 0.109375 C 2.5 0.109375 2.125 0.0703125 1.75 0 C 1.375 -0.0625 1 -0.164062 0.625 -0.3125 L 0.625 -1.59375 C 1 -1.382812 1.363281 -1.226562 1.71875 -1.125 C 2.070312 -1.03125 2.410156 -0.984375 2.734375 -0.984375 C 3.066406 -0.984375 3.316406 -1.035156 3.484375 -1.140625 C 3.660156 -1.253906 3.75 -1.414062 3.75 -1.625 C 3.75 -1.800781 3.6875 -1.941406 3.5625 -2.046875 C 3.445312 -2.148438 3.210938 -2.238281 2.859375 -2.3125 L 2.28125 -2.4375 C 1.6875 -2.570312 1.253906 -2.773438 0.984375 -3.046875 C 0.710938 -3.316406 0.578125 -3.6875 0.578125 -4.15625 C 0.578125 -4.75 0.765625 -5.203125 1.140625 -5.515625 C 1.523438 -5.828125 2.070312 -5.984375 2.78125 -5.984375 C 3.101562 -5.984375 3.429688 -5.957031 3.765625 -5.90625 C 4.109375 -5.863281 4.460938 -5.789062 4.828125 -5.6875 Z "/>
</symbol>
<symbol overflow="visible" id="glyph0-2">
<path style="stroke:none;" d="M 2.65625 -1.984375 C 2.363281 -1.984375 2.140625 -1.929688 1.984375 -1.828125 C 1.835938 -1.734375 1.765625 -1.585938 1.765625 -1.390625 C 1.765625 -1.210938 1.820312 -1.070312 1.9375 -0.96875 C 2.0625 -0.875 2.226562 -0.828125 2.4375 -0.828125 C 2.707031 -0.828125 2.929688 -0.921875 3.109375 -1.109375 C 3.296875 -1.296875 3.390625 -1.535156 3.390625 -1.828125 L 3.390625 -1.984375 Z M 4.8125 -2.515625 L 4.8125 0 L 3.390625 0 L 3.390625 -0.65625 C 3.203125 -0.382812 2.988281 -0.1875 2.75 -0.0625 C 2.507812 0.0507812 2.222656 0.109375 1.890625 0.109375 C 1.429688 0.109375 1.054688 -0.0195312 0.765625 -0.28125 C 0.484375 -0.550781 0.34375 -0.898438 0.34375 -1.328125 C 0.34375 -1.835938 0.519531 -2.210938 0.875 -2.453125 C 1.226562 -2.703125 1.789062 -2.828125 2.5625 -2.828125 L 3.390625 -2.828125 L 3.390625 -2.9375 C 3.390625 -3.15625 3.300781 -3.316406 3.125 -3.421875 C 2.945312 -3.523438 2.671875 -3.578125 2.296875 -3.578125 C 1.992188 -3.578125 1.710938 -3.546875 1.453125 -3.484375 C 1.191406 -3.421875 0.953125 -3.332031 0.734375 -3.21875 L 0.734375 -4.296875 C 1.035156 -4.367188 1.335938 -4.421875 1.640625 -4.453125 C 1.941406 -4.492188 2.25 -4.515625 2.5625 -4.515625 C 3.351562 -4.515625 3.925781 -4.359375 4.28125 -4.046875 C 4.632812 -3.734375 4.8125 -3.222656 4.8125 -2.515625 Z "/>
</symbol>
<symbol overflow="visible" id="glyph0-3">
<path style="stroke:none;" d="M 4.765625 -3.671875 C 4.941406 -3.953125 5.148438 -4.160156 5.390625 -4.296875 C 5.640625 -4.441406 5.910156 -4.515625 6.203125 -4.515625 C 6.710938 -4.515625 7.097656 -4.359375 7.359375 -4.046875 C 7.628906 -3.734375 7.765625 -3.28125 7.765625 -2.6875 L 7.765625 0 L 6.34375 0 L 6.34375 -2.296875 C 6.34375 -2.328125 6.34375 -2.359375 6.34375 -2.390625 C 6.351562 -2.429688 6.359375 -2.488281 6.359375 -2.5625 C 6.359375 -2.875 6.3125 -3.097656 6.21875 -3.234375 C 6.125 -3.378906 5.972656 -3.453125 5.765625 -3.453125 C 5.503906 -3.453125 5.300781 -3.34375 5.15625 -3.125 C 5.007812 -2.90625 4.929688 -2.585938 4.921875 -2.171875 L 4.921875 0 L 3.5 0 L 3.5 -2.296875 C 3.5 -2.785156 3.457031 -3.097656 3.375 -3.234375 C 3.289062 -3.378906 3.144531 -3.453125 2.9375 -3.453125 C 2.664062 -3.453125 2.457031 -3.335938 2.3125 -3.109375 C 2.164062 -2.890625 2.09375 -2.578125 2.09375 -2.171875 L 2.09375 0 L 0.671875 0 L 0.671875 -4.40625 L 2.09375 -4.40625 L 2.09375 -3.765625 C 2.257812 -4.015625 2.453125 -4.203125 2.671875 -4.328125 C 2.898438 -4.453125 3.148438 -4.515625 3.421875 -4.515625 C 3.722656 -4.515625 3.988281 -4.441406 4.21875 -4.296875 C 4.457031 -4.148438 4.640625 -3.941406 4.765625 -3.671875 Z "/>
</symbol>
<symbol overflow="visible" id="glyph0-4">
<path style="stroke:none;" d="M 2.09375 -0.640625 L 2.09375 1.671875 L 0.671875 1.671875 L 0.671875 -4.40625 L 2.09375 -4.40625 L 2.09375 -3.765625 C 2.28125 -4.023438 2.492188 -4.210938 2.734375 -4.328125 C 2.972656 -4.453125 3.242188 -4.515625 3.546875 -4.515625 C 4.085938 -4.515625 4.53125 -4.296875 4.875 -3.859375 C 5.226562 -3.429688 5.40625 -2.878906 5.40625 -2.203125 C 5.40625 -1.523438 5.226562 -0.96875 4.875 -0.53125 C 4.53125 -0.101562 4.085938 0.109375 3.546875 0.109375 C 3.242188 0.109375 2.972656 0.0507812 2.734375 -0.0625 C 2.492188 -0.1875 2.28125 -0.378906 2.09375 -0.640625 Z M 3.03125 -3.484375 C 2.726562 -3.484375 2.492188 -3.375 2.328125 -3.15625 C 2.171875 -2.9375 2.09375 -2.617188 2.09375 -2.203125 C 2.09375 -1.785156 2.171875 -1.460938 2.328125 -1.234375 C 2.492188 -1.015625 2.726562 -0.90625 3.03125 -0.90625 C 3.320312 -0.90625 3.546875 -1.015625 3.703125 -1.234375 C 3.867188 -1.460938 3.953125 -1.785156 3.953125 -2.203125 C 3.953125 -2.617188 3.867188 -2.9375 3.703125 -3.15625 C 3.546875 -3.375 3.320312 -3.484375 3.03125 -3.484375 Z "/>
</symbol>
<symbol overflow="visible" id="glyph0-5">
<path style="stroke:none;" d="M 0.671875 -6.125 L 2.09375 -6.125 L 2.09375 0 L 0.671875 0 Z "/>
</symbol>
<symbol overflow="visible" id="glyph0-6">
<path style="stroke:none;" d="M 0.671875 -4.40625 L 2.09375 -4.40625 L 2.09375 0 L 0.671875 0 Z M 0.671875 -6.125 L 2.09375 -6.125 L 2.09375 -4.96875 L 0.671875 -4.96875 Z "/>
</symbol>
<symbol overflow="visible" id="glyph0-7">
<path style="stroke:none;" d="M 5.109375 -2.6875 L 5.109375 0 L 3.6875 0 L 3.6875 -2.0625 C 3.6875 -2.4375 3.675781 -2.695312 3.65625 -2.84375 C 3.644531 -2.988281 3.617188 -3.09375 3.578125 -3.15625 C 3.523438 -3.25 3.453125 -3.320312 3.359375 -3.375 C 3.265625 -3.425781 3.15625 -3.453125 3.03125 -3.453125 C 2.738281 -3.453125 2.507812 -3.335938 2.34375 -3.109375 C 2.175781 -2.878906 2.09375 -2.566406 2.09375 -2.171875 L 2.09375 0 L 0.671875 0 L 0.671875 -4.40625 L 2.09375 -4.40625 L 2.09375 -3.765625 C 2.300781 -4.023438 2.523438 -4.210938 2.765625 -4.328125 C 3.003906 -4.453125 3.269531 -4.515625 3.5625 -4.515625 C 4.0625 -4.515625 4.441406 -4.359375 4.703125 -4.046875 C 4.972656 -3.734375 5.109375 -3.28125 5.109375 -2.6875 Z "/>
</symbol>
<symbol overflow="visible" id="glyph0-8">
<path style="stroke:none;" d="M 3.671875 -0.75 C 3.484375 -0.488281 3.269531 -0.296875 3.03125 -0.171875 C 2.800781 -0.0546875 2.53125 0 2.21875 0 C 1.6875 0 1.242188 -0.207031 0.890625 -0.625 C 0.535156 -1.050781 0.359375 -1.59375 0.359375 -2.25 C 0.359375 -2.914062 0.535156 -3.457031 0.890625 -3.875 C 1.242188 -4.289062 1.6875 -4.5 2.21875 -4.5 C 2.53125 -4.5 2.800781 -4.4375 3.03125 -4.3125 C 3.269531 -4.195312 3.484375 -4.007812 3.671875 -3.75 L 3.671875 -4.40625 L 5.09375 -4.40625 L 5.09375 -0.4375 C 5.09375 0.269531 4.867188 0.804688 4.421875 1.171875 C 3.972656 1.546875 3.320312 1.734375 2.46875 1.734375 C 2.195312 1.734375 1.929688 1.710938 1.671875 1.671875 C 1.421875 1.628906 1.164062 1.566406 0.90625 1.484375 L 0.90625 0.390625 C 1.144531 0.523438 1.382812 0.628906 1.625 0.703125 C 1.863281 0.773438 2.101562 0.8125 2.34375 0.8125 C 2.800781 0.8125 3.132812 0.707031 3.34375 0.5 C 3.5625 0.300781 3.671875 -0.0078125 3.671875 -0.4375 Z M 2.75 -3.484375 C 2.457031 -3.484375 2.226562 -3.375 2.0625 -3.15625 C 1.90625 -2.945312 1.828125 -2.644531 1.828125 -2.25 C 1.828125 -1.851562 1.90625 -1.550781 2.0625 -1.34375 C 2.21875 -1.132812 2.445312 -1.03125 2.75 -1.03125 C 3.039062 -1.03125 3.265625 -1.132812 3.421875 -1.34375 C 3.585938 -1.5625 3.671875 -1.863281 3.671875 -2.25 C 3.671875 -2.644531 3.585938 -2.945312 3.421875 -3.15625 C 3.265625 -3.375 3.039062 -3.484375 2.75 -3.484375 Z "/>
</symbol>
<symbol overflow="visible" id="glyph0-9">
<path style="stroke:none;" d=""/>
</symbol>
<symbol overflow="visible" id="glyph0-10">
<path style="stroke:none;" d="M 2.21875 -5.65625 L 2.21875 -4.40625 L 3.671875 -4.40625 L 3.671875 -3.40625 L 2.21875 -3.40625 L 2.21875 -1.53125 C 2.21875 -1.320312 2.253906 -1.179688 2.328125 -1.109375 C 2.410156 -1.046875 2.578125 -1.015625 2.828125 -1.015625 L 3.546875 -1.015625 L 3.546875 0 L 2.34375 0 C 1.78125 0 1.382812 -0.113281 1.15625 -0.34375 C 0.925781 -0.582031 0.8125 -0.976562 0.8125 -1.53125 L 0.8125 -3.40625 L 0.109375 -3.40625 L 0.109375 -4.40625 L 0.8125 -4.40625 L 0.8125 -5.65625 Z "/>
</symbol>
<symbol overflow="visible" id="glyph0-11">
<path style="stroke:none;" d="M 5.078125 -2.21875 L 5.078125 -1.8125 L 1.78125 -1.8125 C 1.8125 -1.476562 1.929688 -1.226562 2.140625 -1.0625 C 2.347656 -0.90625 2.632812 -0.828125 3 -0.828125 C 3.289062 -0.828125 3.59375 -0.867188 3.90625 -0.953125 C 4.21875 -1.046875 4.539062 -1.179688 4.875 -1.359375 L 4.875 -0.265625 C 4.539062 -0.140625 4.207031 -0.046875 3.875 0.015625 C 3.539062 0.078125 3.207031 0.109375 2.875 0.109375 C 2.070312 0.109375 1.445312 -0.09375 1 -0.5 C 0.5625 -0.90625 0.34375 -1.472656 0.34375 -2.203125 C 0.34375 -2.921875 0.5625 -3.484375 1 -3.890625 C 1.4375 -4.304688 2.035156 -4.515625 2.796875 -4.515625 C 3.484375 -4.515625 4.035156 -4.304688 4.453125 -3.890625 C 4.867188 -3.472656 5.078125 -2.914062 5.078125 -2.21875 Z M 3.625 -2.6875 C 3.625 -2.957031 3.546875 -3.171875 3.390625 -3.328125 C 3.234375 -3.492188 3.03125 -3.578125 2.78125 -3.578125 C 2.507812 -3.578125 2.285156 -3.5 2.109375 -3.34375 C 1.941406 -3.195312 1.835938 -2.976562 1.796875 -2.6875 Z "/>
</symbol>
<symbol overflow="visible" id="glyph0-12">
<path style="stroke:none;" d="M 3.046875 1.0625 L 1.875 1.0625 C 1.46875 0.414062 1.164062 -0.195312 0.96875 -0.78125 C 0.78125 -1.363281 0.6875 -1.945312 0.6875 -2.53125 C 0.6875 -3.101562 0.78125 -3.679688 0.96875 -4.265625 C 1.164062 -4.859375 1.46875 -5.476562 1.875 -6.125 L 3.046875 -6.125 C 2.703125 -5.5 2.445312 -4.890625 2.28125 -4.296875 C 2.113281 -3.703125 2.03125 -3.113281 2.03125 -2.53125 C 2.03125 -1.945312 2.113281 -1.359375 2.28125 -0.765625 C 2.445312 -0.171875 2.703125 0.4375 3.046875 1.0625 Z "/>
</symbol>
<symbol overflow="visible" id="glyph0-13">
<path style="stroke:none;" d="M 2.25 -4.734375 L 2.25 -1.140625 L 2.796875 -1.140625 C 3.421875 -1.140625 3.894531 -1.289062 4.21875 -1.59375 C 4.539062 -1.90625 4.703125 -2.351562 4.703125 -2.9375 C 4.703125 -3.519531 4.539062 -3.960938 4.21875 -4.265625 C 3.894531 -4.578125 3.421875 -4.734375 2.796875 -4.734375 Z M 0.734375 -5.875 L 2.34375 -5.875 C 3.226562 -5.875 3.890625 -5.8125 4.328125 -5.6875 C 4.765625 -5.5625 5.140625 -5.347656 5.453125 -5.046875 C 5.734375 -4.773438 5.9375 -4.46875 6.0625 -4.125 C 6.195312 -3.78125 6.265625 -3.382812 6.265625 -2.9375 C 6.265625 -2.5 6.195312 -2.101562 6.0625 -1.75 C 5.9375 -1.40625 5.734375 -1.101562 5.453125 -0.84375 C 5.140625 -0.53125 4.757812 -0.3125 4.3125 -0.1875 C 3.875 -0.0625 3.21875 0 2.34375 0 L 0.734375 0 Z "/>
</symbol>
<symbol overflow="visible" id="glyph0-14">
<path style="stroke:none;" d="M 0.640625 1.0625 C 0.984375 0.4375 1.238281 -0.171875 1.40625 -0.765625 C 1.570312 -1.359375 1.65625 -1.945312 1.65625 -2.53125 C 1.65625 -3.113281 1.570312 -3.703125 1.40625 -4.296875 C 1.238281 -4.890625 0.984375 -5.5 0.640625 -6.125 L 1.8125 -6.125 C 2.207031 -5.476562 2.5 -4.859375 2.6875 -4.265625 C 2.882812 -3.679688 2.984375 -3.101562 2.984375 -2.53125 C 2.984375 -1.945312 2.890625 -1.363281 2.703125 -0.78125 C 2.515625 -0.195312 2.21875 0.414062 1.8125 1.0625 Z "/>
</symbol>
<symbol overflow="visible" id="glyph0-15">
<path style="stroke:none;" d="M 5.40625 -0.328125 C 5.125 -0.179688 4.832031 -0.0703125 4.53125 0 C 4.226562 0.0703125 3.914062 0.109375 3.59375 0.109375 C 2.613281 0.109375 1.835938 -0.160156 1.265625 -0.703125 C 0.691406 -1.253906 0.40625 -2 0.40625 -2.9375 C 0.40625 -3.875 0.691406 -4.613281 1.265625 -5.15625 C 1.835938 -5.707031 2.613281 -5.984375 3.59375 -5.984375 C 3.914062 -5.984375 4.226562 -5.945312 4.53125 -5.875 C 4.832031 -5.800781 5.125 -5.691406 5.40625 -5.546875 L 5.40625 -4.328125 C 5.125 -4.523438 4.84375 -4.664062 4.5625 -4.75 C 4.289062 -4.84375 4.003906 -4.890625 3.703125 -4.890625 C 3.160156 -4.890625 2.734375 -4.710938 2.421875 -4.359375 C 2.117188 -4.015625 1.96875 -3.539062 1.96875 -2.9375 C 1.96875 -2.332031 2.117188 -1.851562 2.421875 -1.5 C 2.734375 -1.15625 3.160156 -0.984375 3.703125 -0.984375 C 4.003906 -0.984375 4.289062 -1.023438 4.5625 -1.109375 C 4.84375 -1.203125 5.125 -1.347656 5.40625 -1.546875 Z "/>
</symbol>
<symbol overflow="visible" id="glyph0-16">
<path style="stroke:none;" d="M 2.78125 -3.5 C 2.46875 -3.5 2.226562 -3.382812 2.0625 -3.15625 C 1.894531 -2.9375 1.8125 -2.617188 1.8125 -2.203125 C 1.8125 -1.773438 1.894531 -1.445312 2.0625 -1.21875 C 2.226562 -1 2.46875 -0.890625 2.78125 -0.890625 C 3.082031 -0.890625 3.3125 -1 3.46875 -1.21875 C 3.632812 -1.445312 3.71875 -1.773438 3.71875 -2.203125 C 3.71875 -2.617188 3.632812 -2.9375 3.46875 -3.15625 C 3.3125 -3.382812 3.082031 -3.5 2.78125 -3.5 Z M 2.78125 -4.515625 C 3.53125 -4.515625 4.117188 -4.304688 4.546875 -3.890625 C 4.972656 -3.484375 5.1875 -2.921875 5.1875 -2.203125 C 5.1875 -1.472656 4.972656 -0.90625 4.546875 -0.5 C 4.117188 -0.09375 3.53125 0.109375 2.78125 0.109375 C 2.019531 0.109375 1.421875 -0.09375 0.984375 -0.5 C 0.554688 -0.90625 0.34375 -1.472656 0.34375 -2.203125 C 0.34375 -2.921875 0.554688 -3.484375 0.984375 -3.890625 C 1.421875 -4.304688 2.019531 -4.515625 2.78125 -4.515625 Z "/>
</symbol>
<symbol overflow="visible" id="glyph0-17">
<path style="stroke:none;" d="M 0.625 -1.71875 L 0.625 -4.40625 L 2.046875 -4.40625 L 2.046875 -3.96875 C 2.046875 -3.726562 2.046875 -3.425781 2.046875 -3.0625 C 2.046875 -2.707031 2.046875 -2.46875 2.046875 -2.34375 C 2.046875 -1.988281 2.050781 -1.734375 2.0625 -1.578125 C 2.082031 -1.421875 2.113281 -1.304688 2.15625 -1.234375 C 2.21875 -1.148438 2.296875 -1.082031 2.390625 -1.03125 C 2.484375 -0.976562 2.585938 -0.953125 2.703125 -0.953125 C 3.003906 -0.953125 3.238281 -1.0625 3.40625 -1.28125 C 3.570312 -1.507812 3.65625 -1.828125 3.65625 -2.234375 L 3.65625 -4.40625 L 5.0625 -4.40625 L 5.0625 0 L 3.65625 0 L 3.65625 -0.640625 C 3.4375 -0.378906 3.207031 -0.1875 2.96875 -0.0625 C 2.738281 0.0507812 2.476562 0.109375 2.1875 0.109375 C 1.675781 0.109375 1.285156 -0.046875 1.015625 -0.359375 C 0.753906 -0.671875 0.625 -1.125 0.625 -1.71875 Z "/>
</symbol>
<symbol overflow="visible" id="glyph0-18">
<path style="stroke:none;" d="M 3.953125 -3.203125 C 3.828125 -3.265625 3.703125 -3.304688 3.578125 -3.328125 C 3.460938 -3.359375 3.34375 -3.375 3.21875 -3.375 C 2.851562 -3.375 2.570312 -3.257812 2.375 -3.03125 C 2.1875 -2.800781 2.09375 -2.46875 2.09375 -2.03125 L 2.09375 0 L 0.671875 0 L 0.671875 -4.40625 L 2.09375 -4.40625 L 2.09375 -3.6875 C 2.269531 -3.976562 2.472656 -4.1875 2.703125 -4.3125 C 2.941406 -4.445312 3.226562 -4.515625 3.5625 -4.515625 C 3.601562 -4.515625 3.648438 -4.507812 3.703125 -4.5 C 3.765625 -4.5 3.847656 -4.492188 3.953125 -4.484375 Z "/>
</symbol>
<symbol overflow="visible" id="glyph1-0">
<path style="stroke:none;" d="M 0.765625 0 L 0.765625 -5.75 L 4.078125 -5.75 L 4.078125 0 Z M 1.171875 -5.34375 L 1.171875 -0.40625 L 3.65625 -0.40625 L 3.65625 -5.34375 Z "/>
</symbol>
<symbol overflow="visible" id="glyph1-1">
<path style="stroke:none;" d="M 2.734375 0.078125 C 2.285156 0.078125 1.878906 -0.015625 1.515625 -0.203125 C 1.160156 -0.398438 0.878906 -0.671875 0.671875 -1.015625 C 0.460938 -1.359375 0.359375 -1.753906 0.359375 -2.203125 C 0.359375 -2.648438 0.460938 -3.046875 0.671875 -3.390625 C 0.878906 -3.734375 1.160156 -4 1.515625 -4.1875 C 1.878906 -4.382812 2.285156 -4.484375 2.734375 -4.484375 C 3.117188 -4.484375 3.457031 -4.421875 3.75 -4.296875 C 4.039062 -4.171875 4.28125 -3.992188 4.46875 -3.765625 C 4.625 -3.960938 4.84375 -4.128906 5.125 -4.265625 C 5.40625 -4.410156 5.757812 -4.484375 6.1875 -4.484375 C 6.675781 -4.484375 7.097656 -4.390625 7.453125 -4.203125 C 7.804688 -4.023438 8.082031 -3.765625 8.28125 -3.421875 C 8.476562 -3.078125 8.578125 -2.671875 8.578125 -2.203125 C 8.578125 -1.765625 8.476562 -1.375 8.28125 -1.03125 C 8.09375 -0.6875 7.832031 -0.414062 7.5 -0.21875 C 7.164062 -0.0195312 6.785156 0.078125 6.359375 0.078125 C 6.265625 0.078125 6.148438 0.0664062 6.015625 0.046875 C 5.890625 0.0234375 5.765625 0 5.640625 -0.03125 C 5.515625 -0.0703125 5.410156 -0.117188 5.328125 -0.171875 L 5.71875 -1.078125 C 5.863281 -1.015625 5.972656 -0.972656 6.046875 -0.953125 C 6.117188 -0.941406 6.210938 -0.9375 6.328125 -0.9375 C 6.628906 -0.9375 6.875 -1.050781 7.0625 -1.28125 C 7.257812 -1.507812 7.359375 -1.816406 7.359375 -2.203125 C 7.359375 -2.585938 7.253906 -2.898438 7.046875 -3.140625 C 6.835938 -3.390625 6.554688 -3.515625 6.203125 -3.515625 C 5.890625 -3.515625 5.628906 -3.4375 5.421875 -3.28125 C 5.210938 -3.132812 5.050781 -2.953125 4.9375 -2.734375 C 4.96875 -2.566406 4.984375 -2.390625 4.984375 -2.203125 C 4.984375 -1.753906 4.890625 -1.359375 4.703125 -1.015625 C 4.523438 -0.671875 4.269531 -0.398438 3.9375 -0.203125 C 3.601562 -0.015625 3.203125 0.078125 2.734375 0.078125 Z M 2.734375 -0.890625 C 3.097656 -0.890625 3.378906 -1.007812 3.578125 -1.25 C 3.785156 -1.488281 3.890625 -1.804688 3.890625 -2.203125 C 3.890625 -2.609375 3.785156 -2.925781 3.578125 -3.15625 C 3.367188 -3.394531 3.085938 -3.515625 2.734375 -3.515625 C 2.398438 -3.515625 2.125 -3.394531 1.90625 -3.15625 C 1.695312 -2.914062 1.59375 -2.597656 1.59375 -2.203125 C 1.59375 -1.816406 1.695312 -1.5 1.90625 -1.25 C 2.125 -1.007812 2.398438 -0.890625 2.734375 -0.890625 Z "/>
</symbol>
<symbol overflow="visible" id="glyph1-2">
<path style="stroke:none;" d="M -2.53125 -5.046875 C -2.832031 -5.046875 -3.101562 -5.109375 -3.34375 -5.234375 C -3.582031 -5.367188 -3.765625 -5.550781 -3.890625 -5.78125 C -4.023438 -6.019531 -4.09375 -6.289062 -4.09375 -6.59375 C -4.09375 -6.882812 -4.023438 -7.144531 -3.890625 -7.375 C -3.765625 -7.613281 -3.582031 -7.796875 -3.34375 -7.921875 C -3.113281 -8.054688 -2.84375 -8.125 -2.53125 -8.125 C -2.21875 -8.125 -1.941406 -8.054688 -1.703125 -7.921875 C -1.472656 -7.785156 -1.289062 -7.601562 -1.15625 -7.375 C -1.03125 -7.144531 -0.96875 -6.882812 -0.96875 -6.59375 C -0.96875 -6.28125 -1.03125 -6.007812 -1.15625 -5.78125 C -1.289062 -5.550781 -1.472656 -5.367188 -1.703125 -5.234375 C -1.941406 -5.109375 -2.21875 -5.046875 -2.53125 -5.046875 Z M -2.53125 -5.8125 C -2.332031 -5.8125 -2.179688 -5.882812 -2.078125 -6.03125 C -1.972656 -6.1875 -1.921875 -6.375 -1.921875 -6.59375 C -1.921875 -6.789062 -1.972656 -6.96875 -2.078125 -7.125 C -2.179688 -7.28125 -2.332031 -7.359375 -2.53125 -7.359375 C -2.726562 -7.359375 -2.878906 -7.28125 -2.984375 -7.125 C -3.085938 -6.96875 -3.140625 -6.789062 -3.140625 -6.59375 C -3.140625 -6.375 -3.085938 -6.1875 -2.984375 -6.03125 C -2.878906 -5.882812 -2.726562 -5.8125 -2.53125 -5.8125 Z "/>
</symbol>
<symbol overflow="visible" id="glyph1-3">
<path style="stroke:none;" d="M -2.9375 3.75 L -2.9375 0.375 L -2.140625 0.375 L -2.140625 2.96875 L -1.125 2.96875 L -1.125 3.75 Z "/>
</symbol>
<symbol overflow="visible" id="glyph1-4">
<path style="stroke:none;" d="M 2.84375 0.078125 C 2.351562 0.078125 1.921875 -0.015625 1.546875 -0.203125 C 1.171875 -0.398438 0.878906 -0.671875 0.671875 -1.015625 C 0.460938 -1.359375 0.359375 -1.753906 0.359375 -2.203125 C 0.359375 -2.648438 0.460938 -3.046875 0.671875 -3.390625 C 0.878906 -3.734375 1.171875 -4 1.546875 -4.1875 C 1.921875 -4.382812 2.351562 -4.484375 2.84375 -4.484375 C 3.144531 -4.484375 3.425781 -4.4375 3.6875 -4.34375 C 3.957031 -4.257812 4.195312 -4.140625 4.40625 -3.984375 C 4.613281 -3.828125 4.769531 -3.640625 4.875 -3.421875 L 4.046875 -2.90625 C 3.859375 -3.132812 3.660156 -3.289062 3.453125 -3.375 C 3.253906 -3.46875 3.046875 -3.515625 2.828125 -3.515625 C 2.453125 -3.515625 2.148438 -3.390625 1.921875 -3.140625 C 1.703125 -2.898438 1.59375 -2.585938 1.59375 -2.203125 C 1.59375 -1.804688 1.710938 -1.488281 1.953125 -1.25 C 2.191406 -1.007812 2.507812 -0.890625 2.90625 -0.890625 C 3.113281 -0.890625 3.304688 -0.929688 3.484375 -1.015625 C 3.671875 -1.109375 3.863281 -1.285156 4.0625 -1.546875 L 4.984375 -1.0625 C 4.804688 -0.726562 4.523438 -0.453125 4.140625 -0.234375 C 3.765625 -0.0234375 3.332031 0.078125 2.84375 0.078125 Z "/>
</symbol>
<symbol overflow="visible" id="glyph1-5">
<path style="stroke:none;" d="M -3.09375 -5.046875 C -3.351562 -5.242188 -3.554688 -5.425781 -3.703125 -5.59375 C -3.847656 -5.757812 -3.945312 -5.925781 -4 -6.09375 C -4.0625 -6.269531 -4.09375 -6.445312 -4.09375 -6.625 C -4.09375 -6.925781 -4.023438 -7.1875 -3.890625 -7.40625 C -3.753906 -7.625 -3.566406 -7.796875 -3.328125 -7.921875 C -3.085938 -8.054688 -2.820312 -8.125 -2.53125 -8.125 C -2.25 -8.125 -1.988281 -8.0625 -1.75 -7.9375 C -1.507812 -7.8125 -1.335938 -7.632812 -1.234375 -7.40625 L -1.90625 -6.984375 C -1.945312 -7.066406 -2.019531 -7.144531 -2.125 -7.21875 C -2.226562 -7.300781 -2.363281 -7.34375 -2.53125 -7.34375 C -2.707031 -7.34375 -2.847656 -7.273438 -2.953125 -7.140625 C -3.066406 -7.003906 -3.125 -6.851562 -3.125 -6.6875 C -3.125 -6.5 -3.078125 -6.332031 -2.984375 -6.1875 C -2.898438 -6.039062 -2.804688 -5.921875 -2.703125 -5.828125 C -2.597656 -5.734375 -2.523438 -5.664062 -2.484375 -5.625 Z "/>
</symbol>
<symbol overflow="visible" id="glyph1-6">
<path style="stroke:none;" d="M 1.53125 -2.421875 C 1.226562 -2.421875 0.984375 -2.503906 0.796875 -2.671875 C 0.609375 -2.835938 0.515625 -3.070312 0.515625 -3.375 C 0.515625 -3.675781 0.601562 -3.910156 0.78125 -4.078125 C 0.96875 -4.242188 1.21875 -4.328125 1.53125 -4.328125 C 1.84375 -4.328125 2.09375 -4.238281 2.28125 -4.0625 C 2.476562 -3.882812 2.578125 -3.660156 2.578125 -3.390625 C 2.578125 -3.078125 2.476562 -2.835938 2.28125 -2.671875 C 2.082031 -2.503906 1.832031 -2.421875 1.53125 -2.421875 Z M 1.546875 -3.046875 C 1.640625 -3.046875 1.71875 -3.070312 1.78125 -3.125 C 1.84375 -3.1875 1.875 -3.269531 1.875 -3.375 C 1.875 -3.488281 1.84375 -3.570312 1.78125 -3.625 C 1.71875 -3.675781 1.640625 -3.703125 1.546875 -3.703125 C 1.453125 -3.703125 1.375 -3.675781 1.3125 -3.625 C 1.25 -3.570312 1.21875 -3.488281 1.21875 -3.375 C 1.21875 -3.269531 1.242188 -3.1875 1.296875 -3.125 C 1.359375 -3.070312 1.441406 -3.046875 1.546875 -3.046875 Z M 1.53125 0.078125 C 1.226562 0.078125 0.984375 -0.00390625 0.796875 -0.171875 C 0.609375 -0.335938 0.515625 -0.578125 0.515625 -0.890625 C 0.515625 -1.179688 0.601562 -1.410156 0.78125 -1.578125 C 0.96875 -1.753906 1.21875 -1.84375 1.53125 -1.84375 C 1.84375 -1.84375 2.09375 -1.753906 2.28125 -1.578125 C 2.476562 -1.398438 2.578125 -1.171875 2.578125 -0.890625 C 2.578125 -0.578125 2.476562 -0.335938 2.28125 -0.171875 C 2.082031 -0.00390625 1.832031 0.078125 1.53125 0.078125 Z M 1.546875 -0.546875 C 1.640625 -0.546875 1.71875 -0.578125 1.78125 -0.640625 C 1.84375 -0.703125 1.875 -0.785156 1.875 -0.890625 C 1.875 -0.992188 1.84375 -1.070312 1.78125 -1.125 C 1.71875 -1.175781 1.640625 -1.203125 1.546875 -1.203125 C 1.453125 -1.203125 1.375 -1.175781 1.3125 -1.125 C 1.25 -1.070312 1.21875 -0.992188 1.21875 -0.890625 C 1.21875 -0.660156 1.328125 -0.546875 1.546875 -0.546875 Z "/>
</symbol>
<symbol overflow="visible" id="glyph1-7">
<path style="stroke:none;" d="M 2.828125 0.078125 C 2.328125 0.078125 1.890625 -0.015625 1.515625 -0.203125 C 1.148438 -0.390625 0.863281 -0.65625 0.65625 -1 C 0.457031 -1.351562 0.359375 -1.753906 0.359375 -2.203125 C 0.359375 -2.753906 0.472656 -3.222656 0.703125 -3.609375 C 0.929688 -3.992188 1.21875 -4.285156 1.5625 -4.484375 L 2.15625 -3.515625 C 1.925781 -3.316406 1.765625 -3.109375 1.671875 -2.890625 C 1.578125 -2.679688 1.53125 -2.453125 1.53125 -2.203125 C 1.53125 -2.148438 1.535156 -2.097656 1.546875 -2.046875 C 1.722656 -2.140625 1.914062 -2.21875 2.125 -2.28125 C 2.332031 -2.34375 2.570312 -2.375 2.84375 -2.375 C 3.070312 -2.375 3.285156 -2.347656 3.484375 -2.296875 C 3.691406 -2.242188 3.894531 -2.164062 4.09375 -2.0625 C 4.09375 -2.101562 4.09375 -2.148438 4.09375 -2.203125 C 4.09375 -2.441406 4.046875 -2.671875 3.953125 -2.890625 C 3.867188 -3.109375 3.707031 -3.316406 3.46875 -3.515625 L 4.078125 -4.484375 C 4.421875 -4.285156 4.703125 -3.992188 4.921875 -3.609375 C 5.148438 -3.222656 5.265625 -2.753906 5.265625 -2.203125 C 5.265625 -1.753906 5.164062 -1.359375 4.96875 -1.015625 C 4.769531 -0.671875 4.488281 -0.398438 4.125 -0.203125 C 3.757812 -0.015625 3.328125 0.078125 2.828125 0.078125 Z M 2.8125 -1.578125 C 2.582031 -1.578125 2.382812 -1.550781 2.21875 -1.5 C 2.050781 -1.457031 1.890625 -1.398438 1.734375 -1.328125 C 1.953125 -0.992188 2.3125 -0.828125 2.8125 -0.828125 C 3.050781 -0.828125 3.265625 -0.867188 3.453125 -0.953125 C 3.640625 -1.035156 3.785156 -1.164062 3.890625 -1.34375 C 3.734375 -1.414062 3.570312 -1.472656 3.40625 -1.515625 C 3.238281 -1.554688 3.039062 -1.578125 2.8125 -1.578125 Z "/>
</symbol>
<symbol overflow="visible" id="glyph1-8">
<path style="stroke:none;" d="M -3.953125 3.75 L -3.953125 2.96875 L -2.9375 2.96875 L -2.9375 0.375 L -2.140625 0.375 L -2.140625 3.75 Z "/>
</symbol>
<symbol overflow="visible" id="glyph1-9">
<path style="stroke:none;" d="M 0.875 0.078125 C 0.6875 0.078125 0.488281 0.0546875 0.28125 0.015625 C 0.0703125 -0.0234375 -0.0976562 -0.0859375 -0.234375 -0.171875 L 0.171875 -1.078125 C 0.265625 -1.035156 0.351562 -1 0.4375 -0.96875 C 0.519531 -0.945312 0.617188 -0.9375 0.734375 -0.9375 C 1.023438 -0.9375 1.257812 -1.039062 1.4375 -1.25 C 1.613281 -1.46875 1.703125 -1.757812 1.703125 -2.125 C 1.703125 -2.53125 1.597656 -2.847656 1.390625 -3.078125 C 1.191406 -3.304688 0.910156 -3.421875 0.546875 -3.421875 C 0.253906 -3.421875 0 -3.378906 -0.21875 -3.296875 C -0.4375 -3.210938 -0.644531 -3.113281 -0.84375 -3 L -1.375 -3.828125 C -1.09375 -4.003906 -0.847656 -4.140625 -0.640625 -4.234375 C -0.441406 -4.328125 -0.238281 -4.390625 -0.03125 -4.421875 C 0.164062 -4.460938 0.398438 -4.484375 0.671875 -4.484375 C 1.128906 -4.484375 1.523438 -4.390625 1.859375 -4.203125 C 2.203125 -4.015625 2.460938 -3.75 2.640625 -3.40625 C 2.828125 -3.070312 2.921875 -2.671875 2.921875 -2.203125 C 2.921875 -1.472656 2.738281 -0.910156 2.375 -0.515625 C 2.019531 -0.117188 1.519531 0.078125 0.875 0.078125 Z "/>
</symbol>
<symbol overflow="visible" id="glyph1-10">
<path style="stroke:none;" d=""/>
</symbol>
<symbol overflow="visible" id="glyph1-11">
<path style="stroke:none;" d="M 1.53125 0.078125 C 1.195312 -0.117188 0.914062 -0.410156 0.6875 -0.796875 C 0.46875 -1.179688 0.359375 -1.648438 0.359375 -2.203125 C 0.359375 -2.648438 0.457031 -3.046875 0.65625 -3.390625 C 0.851562 -3.734375 1.125 -4 1.46875 -4.1875 C 1.820312 -4.382812 2.234375 -4.484375 2.703125 -4.484375 C 3.097656 -4.484375 3.445312 -4.421875 3.75 -4.296875 C 4.050781 -4.171875 4.296875 -3.992188 4.484375 -3.765625 C 4.703125 -4.015625 4.957031 -4.195312 5.25 -4.3125 C 5.539062 -4.425781 5.859375 -4.484375 6.203125 -4.484375 C 6.671875 -4.484375 7.082031 -4.382812 7.4375 -4.1875 C 7.800781 -4 8.082031 -3.734375 8.28125 -3.390625 C 8.488281 -3.046875 8.59375 -2.648438 8.59375 -2.203125 C 8.59375 -1.765625 8.492188 -1.375 8.296875 -1.03125 C 8.109375 -0.6875 7.851562 -0.414062 7.53125 -0.21875 C 7.21875 -0.0195312 6.859375 0.078125 6.453125 0.078125 C 6.265625 0.078125 6.0625 0.0546875 5.84375 0.015625 C 5.625 -0.0234375 5.445312 -0.0859375 5.3125 -0.171875 L 5.71875 -1.078125 C 5.832031 -1.035156 5.929688 -1 6.015625 -0.96875 C 6.097656 -0.945312 6.207031 -0.9375 6.34375 -0.9375 C 6.65625 -0.9375 6.898438 -1.050781 7.078125 -1.28125 C 7.265625 -1.519531 7.359375 -1.828125 7.359375 -2.203125 C 7.359375 -2.609375 7.242188 -2.925781 7.015625 -3.15625 C 6.796875 -3.394531 6.503906 -3.515625 6.140625 -3.515625 C 5.835938 -3.515625 5.59375 -3.4375 5.40625 -3.28125 C 5.21875 -3.132812 5.070312 -2.957031 4.96875 -2.75 C 5 -2.570312 5.015625 -2.390625 5.015625 -2.203125 C 5.015625 -1.671875 4.914062 -1.210938 4.71875 -0.828125 C 4.519531 -0.441406 4.234375 -0.140625 3.859375 0.078125 L 3.25 -0.890625 C 3.5 -1.066406 3.671875 -1.265625 3.765625 -1.484375 C 3.859375 -1.710938 3.90625 -1.953125 3.90625 -2.203125 C 3.90625 -2.597656 3.796875 -2.914062 3.578125 -3.15625 C 3.367188 -3.394531 3.085938 -3.515625 2.734375 -3.515625 C 2.390625 -3.515625 2.113281 -3.394531 1.90625 -3.15625 C 1.695312 -2.914062 1.59375 -2.597656 1.59375 -2.203125 C 1.59375 -1.953125 1.628906 -1.71875 1.703125 -1.5 C 1.785156 -1.289062 1.929688 -1.085938 2.140625 -0.890625 Z "/>
</symbol>
<symbol overflow="visible" id="glyph1-12">
<path style="stroke:none;" d="M 2.46875 0.078125 C 1.976562 0.078125 1.539062 -0.0234375 1.15625 -0.234375 C 0.78125 -0.453125 0.507812 -0.726562 0.34375 -1.0625 L 1.25 -1.546875 C 1.457031 -1.285156 1.648438 -1.109375 1.828125 -1.015625 C 2.015625 -0.929688 2.207031 -0.890625 2.40625 -0.890625 C 2.800781 -0.890625 3.117188 -1.007812 3.359375 -1.25 C 3.609375 -1.488281 3.734375 -1.804688 3.734375 -2.203125 C 3.734375 -2.585938 3.617188 -2.898438 3.390625 -3.140625 C 3.171875 -3.390625 2.875 -3.515625 2.5 -3.515625 C 2.269531 -3.515625 2.054688 -3.46875 1.859375 -3.375 C 1.660156 -3.289062 1.46875 -3.132812 1.28125 -2.90625 L 0.4375 -3.421875 C 0.550781 -3.640625 0.707031 -3.828125 0.90625 -3.984375 C 1.113281 -4.140625 1.351562 -4.257812 1.625 -4.34375 C 1.894531 -4.4375 2.175781 -4.484375 2.46875 -4.484375 C 2.851562 -4.484375 3.203125 -4.414062 3.515625 -4.28125 C 3.828125 -4.15625 4.09375 -3.976562 4.3125 -3.75 C 4.5 -3.96875 4.742188 -4.144531 5.046875 -4.28125 C 5.347656 -4.414062 5.703125 -4.484375 6.109375 -4.484375 C 6.609375 -4.484375 7.039062 -4.382812 7.40625 -4.1875 C 7.78125 -4 8.070312 -3.734375 8.28125 -3.390625 C 8.488281 -3.046875 8.59375 -2.648438 8.59375 -2.203125 C 8.59375 -1.765625 8.492188 -1.375 8.296875 -1.03125 C 8.109375 -0.6875 7.84375 -0.414062 7.5 -0.21875 C 7.164062 -0.0195312 6.785156 0.078125 6.359375 0.078125 C 6.191406 0.078125 5.992188 0.0546875 5.765625 0.015625 C 5.546875 -0.0234375 5.359375 -0.0859375 5.203125 -0.171875 L 5.609375 -1.078125 C 5.742188 -1.035156 5.859375 -1 5.953125 -0.96875 C 6.046875 -0.945312 6.140625 -0.9375 6.234375 -0.9375 C 6.597656 -0.9375 6.875 -1.050781 7.0625 -1.28125 C 7.257812 -1.519531 7.359375 -1.828125 7.359375 -2.203125 C 7.359375 -2.609375 7.242188 -2.925781 7.015625 -3.15625 C 6.785156 -3.394531 6.484375 -3.515625 6.109375 -3.515625 C 5.785156 -3.515625 5.515625 -3.4375 5.296875 -3.28125 C 5.085938 -3.132812 4.929688 -2.957031 4.828125 -2.75 C 4.859375 -2.570312 4.875 -2.390625 4.875 -2.203125 C 4.875 -1.753906 4.773438 -1.359375 4.578125 -1.015625 C 4.390625 -0.671875 4.113281 -0.398438 3.75 -0.203125 C 3.394531 -0.015625 2.96875 0.078125 2.46875 0.078125 Z "/>
</symbol>
<symbol overflow="visible" id="glyph1-13">
<path style="stroke:none;" d="M -2.640625 3.5625 C -2.972656 3.5625 -3.257812 3.492188 -3.5 3.359375 C -3.738281 3.222656 -3.925781 3.035156 -4.0625 2.796875 C -4.195312 2.554688 -4.265625 2.28125 -4.265625 1.96875 C -4.265625 1.507812 -4.117188 1.128906 -3.828125 0.828125 C -3.535156 0.523438 -3.128906 0.375 -2.609375 0.375 C -2.253906 0.375 -1.953125 0.441406 -1.703125 0.578125 C -1.460938 0.722656 -1.273438 0.910156 -1.140625 1.140625 C -1.015625 1.378906 -0.953125 1.65625 -0.953125 1.96875 C -0.953125 2.269531 -1.015625 2.539062 -1.140625 2.78125 C -1.273438 3.019531 -1.46875 3.207031 -1.71875 3.34375 C -1.96875 3.488281 -2.273438 3.5625 -2.640625 3.5625 Z M -2.609375 2.796875 C -2.390625 2.796875 -2.21875 2.71875 -2.09375 2.5625 C -1.976562 2.40625 -1.921875 2.207031 -1.921875 1.96875 C -1.921875 1.71875 -1.976562 1.515625 -2.09375 1.359375 C -2.21875 1.210938 -2.390625 1.140625 -2.609375 1.140625 C -2.828125 1.140625 -3 1.210938 -3.125 1.359375 C -3.25 1.503906 -3.3125 1.707031 -3.3125 1.96875 C -3.3125 2.207031 -3.25 2.40625 -3.125 2.5625 C -3.007812 2.71875 -2.835938 2.796875 -2.609375 2.796875 Z "/>
</symbol>
<symbol overflow="visible" id="glyph1-14">
<path style="stroke:none;" d="M 2.546875 0.078125 C 1.859375 0.078125 1.320312 -0.117188 0.9375 -0.515625 C 0.550781 -0.921875 0.359375 -1.484375 0.359375 -2.203125 C 0.359375 -2.628906 0.445312 -3.015625 0.625 -3.359375 C 0.8125 -3.703125 1.070312 -3.972656 1.40625 -4.171875 C 1.738281 -4.378906 2.128906 -4.484375 2.578125 -4.484375 C 3.203125 -4.484375 3.695312 -4.328125 4.0625 -4.015625 C 4.4375 -3.703125 4.738281 -3.226562 4.96875 -2.59375 C 5.113281 -2.164062 5.257812 -1.832031 5.40625 -1.59375 C 5.550781 -1.363281 5.703125 -1.195312 5.859375 -1.09375 C 6.023438 -1 6.207031 -0.953125 6.40625 -0.953125 C 6.707031 -0.953125 6.941406 -1.066406 7.109375 -1.296875 C 7.285156 -1.523438 7.375 -1.828125 7.375 -2.203125 C 7.375 -2.554688 7.28125 -2.851562 7.09375 -3.09375 C 6.90625 -3.332031 6.632812 -3.453125 6.28125 -3.453125 C 6.144531 -3.453125 6.03125 -3.441406 5.9375 -3.421875 C 5.851562 -3.398438 5.753906 -3.367188 5.640625 -3.328125 L 5.21875 -4.21875 C 5.375 -4.3125 5.5625 -4.378906 5.78125 -4.421875 C 6 -4.460938 6.207031 -4.484375 6.40625 -4.484375 C 7.09375 -4.484375 7.628906 -4.285156 8.015625 -3.890625 C 8.398438 -3.492188 8.59375 -2.929688 8.59375 -2.203125 C 8.59375 -1.773438 8.5 -1.390625 8.3125 -1.046875 C 8.132812 -0.703125 7.878906 -0.425781 7.546875 -0.21875 C 7.222656 -0.0195312 6.832031 0.078125 6.375 0.078125 C 5.75 0.078125 5.242188 -0.0820312 4.859375 -0.40625 C 4.484375 -0.726562 4.191406 -1.203125 3.984375 -1.828125 C 3.835938 -2.242188 3.691406 -2.566406 3.546875 -2.796875 C 3.410156 -3.035156 3.257812 -3.203125 3.09375 -3.296875 C 2.925781 -3.398438 2.742188 -3.453125 2.546875 -3.453125 C 2.234375 -3.453125 1.992188 -3.332031 1.828125 -3.09375 C 1.671875 -2.851562 1.59375 -2.554688 1.59375 -2.203125 C 1.59375 -1.816406 1.6875 -1.507812 1.875 -1.28125 C 2.070312 -1.050781 2.335938 -0.9375 2.671875 -0.9375 C 2.804688 -0.9375 2.914062 -0.945312 3 -0.96875 C 3.09375 -1 3.195312 -1.035156 3.3125 -1.078125 L 3.71875 -0.171875 C 3.570312 -0.0859375 3.390625 -0.0234375 3.171875 0.015625 C 2.953125 0.0546875 2.742188 0.078125 2.546875 0.078125 Z "/>
</symbol>
<symbol overflow="visible" id="glyph1-15">
<path style="stroke:none;" d="M -1.625 -5.234375 L -3.34375 -6.640625 L -2.71875 -7.390625 L -1.015625 -5.96875 Z "/>
</symbol>
<symbol overflow="visible" id="glyph1-16">
<path style="stroke:none;" d="M 1.09375 -2.234375 L 1.09375 -2.34375 C 1.113281 -2.550781 1.171875 -2.738281 1.265625 -2.90625 C 1.367188 -3.070312 1.5625 -3.253906 1.84375 -3.453125 C 2.082031 -3.617188 2.253906 -3.765625 2.359375 -3.890625 C 2.460938 -4.023438 2.515625 -4.175781 2.515625 -4.34375 C 2.515625 -4.519531 2.453125 -4.648438 2.328125 -4.734375 C 2.203125 -4.828125 2.023438 -4.875 1.796875 -4.875 C 1.566406 -4.875 1.34375 -4.835938 1.125 -4.765625 C 0.90625 -4.691406 0.679688 -4.597656 0.453125 -4.484375 L 0.03125 -5.34375 C 0.289062 -5.488281 0.570312 -5.609375 0.875 -5.703125 C 1.1875 -5.796875 1.523438 -5.84375 1.890625 -5.84375 C 2.441406 -5.84375 2.875 -5.707031 3.1875 -5.4375 C 3.5 -5.164062 3.65625 -4.820312 3.65625 -4.40625 C 3.65625 -4.1875 3.617188 -3.992188 3.546875 -3.828125 C 3.472656 -3.671875 3.367188 -3.523438 3.234375 -3.390625 C 3.097656 -3.253906 2.921875 -3.109375 2.703125 -2.953125 C 2.472656 -2.773438 2.320312 -2.640625 2.25 -2.546875 C 2.1875 -2.460938 2.148438 -2.382812 2.140625 -2.3125 L 2.125 -2.234375 Z M 1.625 0.078125 C 1.3125 0.078125 1.0625 -0.00390625 0.875 -0.171875 C 0.6875 -0.335938 0.59375 -0.578125 0.59375 -0.890625 C 0.59375 -1.179688 0.6875 -1.410156 0.875 -1.578125 C 1.0625 -1.753906 1.3125 -1.84375 1.625 -1.84375 C 1.925781 -1.84375 2.175781 -1.753906 2.375 -1.578125 C 2.570312 -1.398438 2.671875 -1.171875 2.671875 -0.890625 C 2.671875 -0.578125 2.570312 -0.335938 2.375 -0.171875 C 2.175781 -0.00390625 1.925781 0.078125 1.625 0.078125 Z M 1.640625 -0.5625 C 1.734375 -0.5625 1.804688 -0.585938 1.859375 -0.640625 C 1.921875 -0.703125 1.953125 -0.785156 1.953125 -0.890625 C 1.953125 -0.992188 1.921875 -1.070312 1.859375 -1.125 C 1.804688 -1.1875 1.734375 -1.21875 1.640625 -1.21875 C 1.546875 -1.21875 1.46875 -1.1875 1.40625 -1.125 C 1.34375 -1.070312 1.3125 -0.992188 1.3125 -0.890625 C 1.3125 -0.785156 1.335938 -0.703125 1.390625 -0.640625 C 1.441406 -0.585938 1.523438 -0.5625 1.640625 -0.5625 Z "/>
</symbol>
</g>
</defs>
<g id="surface1">
<g style="fill:rgb(100%,100%,100%);fill-opacity:1;">
  <use xlink:href="#glyph0-1" x="30" y="30.666016"/>
  <use xlink:href="#glyph0-2" x="36" y="30.666016"/>
  <use xlink:href="#glyph0-3" x="41" y="30.666016"/>
  <use xlink:href="#glyph0-4" x="49" y="30.666016"/>
  <use xlink:href="#glyph0-5" x="55" y="30.666016"/>
  <use xlink:href="#glyph0-6" x="58" y="30.666016"/>
  <use xlink:href="#glyph0-7" x="61" y="30.666016"/>
  <use xlink:href="#glyph0-8" x="67" y="30.666016"/>
  <use xlink:href="#glyph0-9" x="73" y="30.666016"/>
  <use xlink:href="#glyph0-10" x="76" y="30.666016"/>
  <use xlink:href="#glyph0-6" x="80" y="30.666016"/>
  <use xlink:href="#glyph0-3" x="83" y="30.666016"/>
  <use xlink:href="#glyph0-11" x="91" y="30.666016"/>
  <use xlink:href="#glyph0-9" x="96" y="30.666016"/>
  <use xlink:href="#glyph0-12" x="99" y="30.666016"/>
  <use xlink:href="#glyph0-13" x="103" y="30.666016"/>
  <use xlink:href="#glyph0-11" x="110" y="30.666016"/>
  <use xlink:href="#glyph0-5" x="115" y="30.666016"/>
  <use xlink:href="#glyph0-10" x="118" y="30.666016"/>
  <use xlink:href="#glyph0-2" x="122" y="30.666016"/>
  <use xlink:href="#glyph0-9" x="127" y="30.666016"/>
  <use xlink:href="#glyph0-10" x="130" y="30.666016"/>
  <use xlink:href="#glyph0-14" x="134" y="30.666016"/>
  <use xlink:href="#glyph0-9" x="138" y="30.666016"/>
</g>
<g style="fill:rgb(100%,100%,100%);fill-opacity:1;">
  <use xlink:href="#glyph1-1" x="141" y="30.666016"/>
  <use xlink:href="#glyph1-2" x="150" y="30.666016"/>
  <use xlink:href="#glyph1-3" x="150" y="30.666016"/>
  <use xlink:href="#glyph1-4" x="150" y="30.666016"/>
  <use xlink:href="#glyph1-5" x="155" y="30.666016"/>
  <use xlink:href="#glyph1-6" x="155" y="30.666016"/>
  <use xlink:href="#glyph1-7" x="158" y="30.666016"/>
  <use xlink:href="#glyph1-8" x="164" y="30.666016"/>
  <use xlink:href="#glyph1-9" x="164" y="30.666016"/>
  <use xlink:href="#glyph1-10" x="167" y="30.666016"/>
</g>
<g style="fill:rgb(100%,100%,100%);fill-opacity:1;">
  <use xlink:href="#glyph0-15" x="169" y="30.666016"/>
  <use xlink:href="#glyph0-16" x="175" y="30.666016"/>
  <use xlink:href="#glyph0-3" x="181" y="30.666016"/>
  <use xlink:href="#glyph0-4" x="189" y="30.666016"/>
  <use xlink:href="#glyph0-17" x="195" y="30.666016"/>
  <use xlink:href="#glyph0-10" x="201" y="30.666016"/>
  <use xlink:href="#glyph0-11" x="205" y="30.666016"/>
  <use xlink:href="#glyph0-18" x="210" y="30.666016"/>
  <use xlink:href="#glyph0-9" x="214" y="30.666016"/>
</g>
<g style="fill:rgb(100%,100%,100%);fill-opacity:1;">
  <use xlink:href="#glyph1-11" x="217" y="30.666016"/>
  <use xlink:href="#glyph1-10" x="226" y="30.666016"/>
  <use xlink:href="#glyph1-12" x="228" y="30.666016"/>
  <use xlink:href="#glyph1-9" x="237" y="30.666016"/>
  <use xlink:href="#glyph1-1" x="240" y="30.666016"/>
  <use xlink:href="#glyph1-13" x="249" y="30.666016"/>
  <use xlink:href="#glyph1-11" x="249" y="30.666016"/>
  <use xlink:href="#glyph1-5" x="258" y="30.666016"/>
  <use xlink:href="#glyph1-14" x="258" y="30.666016"/>
  <use xlink:href="#glyph1-15" x="267" y="30.666016"/>
  <use xlink:href="#glyph1-16" x="267" y="30.666016"/>
</g>
</g>
</svg>
