<?xml version="1.0" encoding="UTF-8"?>
<svg xmlns="http://www.w3.org/2000/svg" xmlns:xlink="http://www.w3.org/1999/xlink" width="1920pt" height="1080pt" viewBox="0 0 1920 1080" version="1.1">
<defs>
<g>
<symbol overflow="visible" id="glyph0-0">
<path style="stroke:none;" d="M 0.421875 1.46875 L 0.421875 -5.875 L 4.578125 -5.875 L 4.578125 1.46875 Z M 0.875 1.015625 L 4.109375 1.015625 L 4.109375 -5.40625 L 0.875 -5.40625 Z "/>
</symbol>
<symbol overflow="visible" id="glyph0-1">
<path style="stroke:none;" d="M 4.421875 -2.96875 C 4.660156 -2.925781 4.863281 -2.84375 5.03125 -2.71875 C 5.195312 -2.59375 5.34375 -2.414062 5.46875 -2.1875 L 6.34375 -0.484375 L 6.96875 -0.484375 L 6.96875 0 L 4.96875 0 L 4 -1.828125 C 3.8125 -2.210938 3.648438 -2.457031 3.515625 -2.5625 C 3.390625 -2.664062 3.210938 -2.71875 2.984375 -2.71875 L 2.734375 -2.71875 L 2.734375 -0.484375 L 3.515625 -0.484375 L 3.515625 0 L 0.390625 0 L 0.390625 -0.484375 L 1.171875 -0.484375 L 1.171875 -5.578125 L 0.390625 -5.578125 L 0.390625 -6.078125 L 3.859375 -6.078125 C 4.554688 -6.078125 5.097656 -5.929688 5.484375 -5.640625 C 5.867188 -5.359375 6.0625 -4.957031 6.0625 -4.4375 C 6.0625 -4.019531 5.925781 -3.6875 5.65625 -3.4375 C 5.382812 -3.1875 4.972656 -3.03125 4.421875 -2.96875 Z M 2.734375 -3.203125 L 3.265625 -3.203125 C 3.640625 -3.203125 3.929688 -3.304688 4.140625 -3.515625 C 4.347656 -3.722656 4.453125 -4.015625 4.453125 -4.390625 C 4.453125 -4.773438 4.347656 -5.066406 4.140625 -5.265625 C 3.929688 -5.472656 3.640625 -5.578125 3.265625 -5.578125 L 2.734375 -5.578125 Z "/>
</symbol>
<symbol overflow="visible" id="glyph0-2">
<path style="stroke:none;" d="M 4.59375 -2.65625 L 4.59375 -0.484375 L 5.203125 -0.484375 L 5.203125 0 L 3.140625 0 L 3.140625 -0.546875 C 2.953125 -0.316406 2.738281 -0.144531 2.5 -0.03125 C 2.269531 0.0703125 2.007812 0.125 1.71875 0.125 C 1.269531 0.125 0.925781 0.00390625 0.6875 -0.234375 C 0.457031 -0.472656 0.34375 -0.8125 0.34375 -1.25 C 0.34375 -1.738281 0.507812 -2.101562 0.84375 -2.34375 C 1.1875 -2.582031 1.703125 -2.703125 2.390625 -2.703125 L 3.140625 -2.703125 L 3.140625 -2.96875 C 3.140625 -3.3125 3.054688 -3.566406 2.890625 -3.734375 C 2.734375 -3.898438 2.476562 -3.984375 2.125 -3.984375 C 1.84375 -3.984375 1.625 -3.925781 1.46875 -3.8125 C 1.3125 -3.695312 1.203125 -3.503906 1.140625 -3.234375 L 0.671875 -3.234375 L 0.671875 -4.171875 C 0.929688 -4.253906 1.195312 -4.316406 1.46875 -4.359375 C 1.75 -4.410156 2.039062 -4.4375 2.34375 -4.4375 C 3.125 -4.4375 3.691406 -4.289062 4.046875 -4 C 4.410156 -3.71875 4.59375 -3.269531 4.59375 -2.65625 Z M 3.140625 -1.359375 L 3.140625 -2.21875 L 2.609375 -2.21875 C 2.335938 -2.21875 2.128906 -2.144531 1.984375 -2 C 1.835938 -1.851562 1.765625 -1.644531 1.765625 -1.375 C 1.765625 -1.101562 1.816406 -0.898438 1.921875 -0.765625 C 2.035156 -0.628906 2.195312 -0.5625 2.40625 -0.5625 C 2.625 -0.5625 2.800781 -0.632812 2.9375 -0.78125 C 3.070312 -0.925781 3.140625 -1.117188 3.140625 -1.359375 Z "/>
</symbol>
<symbol overflow="visible" id="glyph0-3">
<path style="stroke:none;" d="M 4.484375 -4.328125 L 5.46875 -1.4375 L 6.28125 -3.828125 L 5.71875 -3.828125 L 5.71875 -4.328125 L 7.328125 -4.328125 L 7.328125 -3.828125 L 6.828125 -3.828125 L 5.515625 0 L 4.53125 0 L 3.609375 -2.703125 L 2.6875 0 L 1.703125 0 L 0.40625 -3.828125 L -0.078125 -3.828125 L -0.078125 -4.328125 L 2.375 -4.328125 L 2.375 -3.828125 L 1.859375 -3.828125 L 2.65625 -1.5 L 3.625 -4.328125 Z "/>
</symbol>
<symbol overflow="visible" id="glyph0-4">
<path style="stroke:none;" d=""/>
</symbol>
<symbol overflow="visible" id="glyph0-5">
<path style="stroke:none;" d="M 0.71875 -5.890625 C 1.070312 -5.984375 1.414062 -6.054688 1.75 -6.109375 C 2.09375 -6.160156 2.421875 -6.1875 2.734375 -6.1875 C 3.472656 -6.1875 4.035156 -6.050781 4.421875 -5.78125 C 4.816406 -5.519531 5.015625 -5.148438 5.015625 -4.671875 C 5.015625 -4.296875 4.898438 -3.992188 4.671875 -3.765625 C 4.453125 -3.546875 4.125 -3.394531 3.6875 -3.3125 C 4.21875 -3.226562 4.613281 -3.046875 4.875 -2.765625 C 5.132812 -2.492188 5.265625 -2.117188 5.265625 -1.640625 C 5.265625 -1.066406 5.039062 -0.628906 4.59375 -0.328125 C 4.144531 -0.0234375 3.492188 0.125 2.640625 0.125 C 2.316406 0.125 1.984375 0.09375 1.640625 0.03125 C 1.304688 -0.0195312 0.953125 -0.0976562 0.578125 -0.203125 L 0.578125 -1.546875 L 1.078125 -1.546875 C 1.109375 -1.160156 1.226562 -0.863281 1.4375 -0.65625 C 1.644531 -0.457031 1.9375 -0.359375 2.3125 -0.359375 C 2.726562 -0.359375 3.046875 -0.472656 3.265625 -0.703125 C 3.492188 -0.929688 3.609375 -1.253906 3.609375 -1.671875 C 3.609375 -2.109375 3.488281 -2.445312 3.25 -2.6875 C 3.019531 -2.925781 2.6875 -3.046875 2.25 -3.046875 L 1.984375 -3.046875 L 1.984375 -3.53125 L 2.203125 -3.53125 C 2.597656 -3.53125 2.894531 -3.625 3.09375 -3.8125 C 3.300781 -4 3.40625 -4.273438 3.40625 -4.640625 C 3.40625 -4.984375 3.304688 -5.242188 3.109375 -5.421875 C 2.921875 -5.609375 2.65625 -5.703125 2.3125 -5.703125 C 1.988281 -5.703125 1.734375 -5.613281 1.546875 -5.4375 C 1.359375 -5.269531 1.242188 -5.019531 1.203125 -4.6875 L 0.71875 -4.6875 Z "/>
</symbol>
<symbol overflow="visible" id="glyph0-6">
<path style="stroke:none;" d="M 0.453125 -2.78125 L 3 -2.78125 L 3 -1.6875 L 0.453125 -1.6875 Z "/>
</symbol>
<symbol overflow="visible" id="glyph0-7">
<path style="stroke:none;" d="M 4.703125 -1.34375 C 4.597656 -0.851562 4.382812 -0.484375 4.0625 -0.234375 C 3.75 0.00390625 3.316406 0.125 2.765625 0.125 C 1.992188 0.125 1.394531 -0.0703125 0.96875 -0.46875 C 0.550781 -0.875 0.34375 -1.4375 0.34375 -2.15625 C 0.34375 -2.875 0.550781 -3.429688 0.96875 -3.828125 C 1.382812 -4.234375 1.960938 -4.4375 2.703125 -4.4375 C 3.003906 -4.4375 3.304688 -4.40625 3.609375 -4.34375 C 3.921875 -4.289062 4.234375 -4.207031 4.546875 -4.09375 L 4.546875 -2.90625 L 4.09375 -2.90625 C 4.050781 -3.269531 3.941406 -3.539062 3.765625 -3.71875 C 3.597656 -3.894531 3.363281 -3.984375 3.0625 -3.984375 C 2.65625 -3.984375 2.367188 -3.847656 2.203125 -3.578125 C 2.035156 -3.304688 1.953125 -2.832031 1.953125 -2.15625 C 1.953125 -1.507812 2.03125 -1.046875 2.1875 -0.765625 C 2.351562 -0.484375 2.625 -0.34375 3 -0.34375 C 3.289062 -0.34375 3.523438 -0.425781 3.703125 -0.59375 C 3.878906 -0.769531 3.984375 -1.019531 4.015625 -1.34375 Z "/>
</symbol>
<symbol overflow="visible" id="glyph0-8">
<path style="stroke:none;" d="M 5.046875 -3.609375 C 5.253906 -3.898438 5.472656 -4.109375 5.703125 -4.234375 C 5.941406 -4.367188 6.210938 -4.4375 6.515625 -4.4375 C 7.015625 -4.4375 7.382812 -4.296875 7.625 -4.015625 C 7.875 -3.734375 8 -3.3125 8 -2.75 L 8 -0.484375 L 8.625 -0.484375 L 8.625 0 L 6.046875 0 L 6.046875 -0.484375 L 6.5625 -0.484375 L 6.5625 -2.53125 C 6.5625 -3.070312 6.519531 -3.410156 6.4375 -3.546875 C 6.351562 -3.691406 6.203125 -3.765625 5.984375 -3.765625 C 5.722656 -3.765625 5.519531 -3.664062 5.375 -3.46875 C 5.238281 -3.269531 5.171875 -2.988281 5.171875 -2.625 L 5.171875 -0.484375 L 5.6875 -0.484375 L 5.6875 0 L 3.21875 0 L 3.21875 -0.484375 L 3.734375 -0.484375 L 3.734375 -2.53125 C 3.734375 -3.070312 3.691406 -3.410156 3.609375 -3.546875 C 3.523438 -3.691406 3.367188 -3.765625 3.140625 -3.765625 C 2.890625 -3.765625 2.691406 -3.664062 2.546875 -3.46875 C 2.410156 -3.269531 2.34375 -2.988281 2.34375 -2.625 L 2.34375 -0.484375 L 2.859375 -0.484375 L 2.859375 0 L 0.28125 0 L 0.28125 -0.484375 L 0.90625 -0.484375 L 0.90625 -3.828125 L 0.28125 -3.828125 L 0.28125 -4.328125 L 2.34375 -4.328125 L 2.34375 -3.71875 C 2.507812 -3.96875 2.695312 -4.148438 2.90625 -4.265625 C 3.125 -4.378906 3.382812 -4.4375 3.6875 -4.4375 C 4.039062 -4.4375 4.328125 -4.367188 4.546875 -4.234375 C 4.765625 -4.097656 4.929688 -3.890625 5.046875 -3.609375 Z "/>
</symbol>
<symbol overflow="visible" id="glyph0-9">
<path style="stroke:none;" d="M 3.34375 -2.4375 C 3.34375 -3.007812 3.285156 -3.410156 3.171875 -3.640625 C 3.066406 -3.867188 2.890625 -3.984375 2.640625 -3.984375 C 2.390625 -3.984375 2.210938 -3.867188 2.109375 -3.640625 C 2.003906 -3.421875 1.953125 -3.046875 1.953125 -2.515625 L 1.953125 -2.4375 Z M 4.921875 -1.953125 L 1.953125 -1.953125 L 1.953125 -1.921875 C 1.953125 -1.359375 2.035156 -0.953125 2.203125 -0.703125 C 2.367188 -0.460938 2.640625 -0.34375 3.015625 -0.34375 C 3.328125 -0.34375 3.578125 -0.425781 3.765625 -0.59375 C 3.960938 -0.757812 4.085938 -1 4.140625 -1.3125 L 4.8125 -1.3125 C 4.695312 -0.820312 4.460938 -0.457031 4.109375 -0.21875 C 3.765625 0.0078125 3.28125 0.125 2.65625 0.125 C 1.914062 0.125 1.34375 -0.0703125 0.9375 -0.46875 C 0.539062 -0.863281 0.34375 -1.425781 0.34375 -2.15625 C 0.34375 -2.875 0.546875 -3.429688 0.953125 -3.828125 C 1.359375 -4.234375 1.925781 -4.4375 2.65625 -4.4375 C 3.375 -4.4375 3.925781 -4.222656 4.3125 -3.796875 C 4.695312 -3.378906 4.898438 -2.765625 4.921875 -1.953125 Z "/>
</symbol>
<symbol overflow="visible" id="glyph0-10">
<path style="stroke:none;" d="M 4.46875 -4.375 L 4.46875 -3.078125 L 4.015625 -3.078125 C 3.992188 -3.304688 3.925781 -3.476562 3.8125 -3.59375 C 3.707031 -3.707031 3.554688 -3.765625 3.359375 -3.765625 C 3.046875 -3.765625 2.796875 -3.625 2.609375 -3.34375 C 2.429688 -3.070312 2.34375 -2.691406 2.34375 -2.203125 L 2.34375 -0.484375 L 3.125 -0.484375 L 3.125 0 L 0.28125 0 L 0.28125 -0.484375 L 0.90625 -0.484375 L 0.90625 -3.828125 L 0.234375 -3.828125 L 0.234375 -4.328125 L 2.34375 -4.328125 L 2.34375 -3.546875 C 2.476562 -3.847656 2.660156 -4.070312 2.890625 -4.21875 C 3.128906 -4.363281 3.414062 -4.4375 3.75 -4.4375 C 3.832031 -4.4375 3.929688 -4.429688 4.046875 -4.421875 C 4.171875 -4.410156 4.3125 -4.394531 4.46875 -4.375 Z "/>
</symbol>
<symbol overflow="visible" id="glyph0-11">
<path style="stroke:none;" d="M 0.390625 0 L 0.390625 -0.484375 L 1.171875 -0.484375 L 1.171875 -5.578125 L 0.390625 -5.578125 L 0.390625 -6.078125 L 3.515625 -6.078125 L 3.515625 -5.578125 L 2.734375 -5.578125 L 2.734375 -3.53125 L 5.140625 -3.53125 L 5.140625 -5.578125 L 4.375 -5.578125 L 4.375 -6.078125 L 7.5 -6.078125 L 7.5 -5.578125 L 6.71875 -5.578125 L 6.71875 -0.484375 L 7.5 -0.484375 L 7.5 0 L 4.375 0 L 4.375 -0.484375 L 5.140625 -0.484375 L 5.140625 -2.984375 L 2.734375 -2.984375 L 2.734375 -0.484375 L 3.515625 -0.484375 L 3.515625 0 Z "/>
</symbol>
<symbol overflow="visible" id="glyph0-12">
<path style="stroke:none;" d="M 2.734375 -0.484375 L 3.296875 -0.484375 C 3.929688 -0.484375 4.394531 -0.6875 4.6875 -1.09375 C 4.976562 -1.507812 5.125 -2.160156 5.125 -3.046875 C 5.125 -3.921875 4.976562 -4.5625 4.6875 -4.96875 C 4.394531 -5.375 3.929688 -5.578125 3.296875 -5.578125 L 2.734375 -5.578125 Z M 0.390625 0 L 0.390625 -0.484375 L 1.171875 -0.484375 L 1.171875 -5.578125 L 0.390625 -5.578125 L 0.390625 -6.078125 L 3.5 -6.078125 C 4.59375 -6.078125 5.425781 -5.816406 6 -5.296875 C 6.582031 -4.773438 6.875 -4.023438 6.875 -3.046875 C 6.875 -2.054688 6.582031 -1.300781 6 -0.78125 C 5.425781 -0.257812 4.59375 0 3.5 0 Z "/>
</symbol>
<symbol overflow="visible" id="glyph0-13">
<path style="stroke:none;" d="M 1.859375 0 L 0.328125 -3.828125 L -0.15625 -3.828125 L -0.15625 -4.328125 L 2.328125 -4.328125 L 2.328125 -3.828125 L 1.8125 -3.828125 L 2.90625 -1.09375 L 3.984375 -3.828125 L 3.421875 -3.828125 L 3.421875 -4.328125 L 5.046875 -4.328125 L 5.046875 -3.828125 L 4.546875 -3.828125 L 3.015625 0 Z "/>
</symbol>
<symbol overflow="visible" id="glyph0-14">
<path style="stroke:none;" d="M 0.765625 -5.546875 C 0.765625 -5.765625 0.835938 -5.945312 0.984375 -6.09375 C 1.140625 -6.25 1.328125 -6.328125 1.546875 -6.328125 C 1.765625 -6.328125 1.945312 -6.25 2.09375 -6.09375 C 2.25 -5.945312 2.328125 -5.765625 2.328125 -5.546875 C 2.328125 -5.328125 2.25 -5.144531 2.09375 -5 C 1.945312 -4.851562 1.765625 -4.78125 1.546875 -4.78125 C 1.328125 -4.78125 1.140625 -4.851562 0.984375 -5 C 0.835938 -5.144531 0.765625 -5.328125 0.765625 -5.546875 Z M 2.34375 -0.484375 L 2.953125 -0.484375 L 2.953125 0 L 0.28125 0 L 0.28125 -0.484375 L 0.90625 -0.484375 L 0.90625 -3.828125 L 0.28125 -3.828125 L 0.28125 -4.328125 L 2.34375 -4.328125 Z "/>
</symbol>
<symbol overflow="visible" id="glyph0-15">
<path style="stroke:none;" d="M 0.390625 -0.125 L 0.390625 -1.328125 L 0.84375 -1.328125 C 0.882812 -1.003906 1.003906 -0.757812 1.203125 -0.59375 C 1.410156 -0.425781 1.691406 -0.34375 2.046875 -0.34375 C 2.335938 -0.34375 2.5625 -0.390625 2.71875 -0.484375 C 2.875 -0.585938 2.953125 -0.738281 2.953125 -0.9375 C 2.953125 -1.101562 2.898438 -1.234375 2.796875 -1.328125 C 2.703125 -1.421875 2.507812 -1.503906 2.21875 -1.578125 L 1.625 -1.734375 C 1.175781 -1.847656 0.851562 -2.003906 0.65625 -2.203125 C 0.457031 -2.410156 0.359375 -2.691406 0.359375 -3.046875 C 0.359375 -3.515625 0.519531 -3.863281 0.84375 -4.09375 C 1.164062 -4.320312 1.664062 -4.4375 2.34375 -4.4375 C 2.601562 -4.4375 2.875 -4.414062 3.15625 -4.375 C 3.445312 -4.332031 3.769531 -4.269531 4.125 -4.1875 L 4.125 -3.09375 L 3.65625 -3.09375 C 3.632812 -3.382812 3.53125 -3.601562 3.34375 -3.75 C 3.15625 -3.90625 2.890625 -3.984375 2.546875 -3.984375 C 2.253906 -3.984375 2.03125 -3.9375 1.875 -3.84375 C 1.726562 -3.75 1.65625 -3.613281 1.65625 -3.4375 C 1.65625 -3.289062 1.695312 -3.171875 1.78125 -3.078125 C 1.875 -2.992188 2.03125 -2.925781 2.25 -2.875 L 2.84375 -2.71875 C 3.414062 -2.582031 3.804688 -2.40625 4.015625 -2.1875 C 4.234375 -1.976562 4.34375 -1.6875 4.34375 -1.3125 C 4.34375 -0.820312 4.164062 -0.457031 3.8125 -0.21875 C 3.46875 0.0078125 2.929688 0.125 2.203125 0.125 C 1.929688 0.125 1.644531 0.101562 1.34375 0.0625 C 1.039062 0.0195312 0.722656 -0.0390625 0.390625 -0.125 Z "/>
</symbol>
<symbol overflow="visible" id="glyph0-16">
<path style="stroke:none;" d="M 2.78125 -0.34375 C 3.082031 -0.34375 3.296875 -0.472656 3.421875 -0.734375 C 3.546875 -0.992188 3.609375 -1.46875 3.609375 -2.15625 C 3.609375 -2.851562 3.546875 -3.332031 3.421875 -3.59375 C 3.296875 -3.851562 3.082031 -3.984375 2.78125 -3.984375 C 2.476562 -3.984375 2.265625 -3.851562 2.140625 -3.59375 C 2.015625 -3.332031 1.953125 -2.851562 1.953125 -2.15625 C 1.953125 -1.46875 2.015625 -0.992188 2.140625 -0.734375 C 2.265625 -0.472656 2.476562 -0.34375 2.78125 -0.34375 Z M 2.78125 0.125 C 2.019531 0.125 1.421875 -0.078125 0.984375 -0.484375 C 0.554688 -0.890625 0.34375 -1.445312 0.34375 -2.15625 C 0.34375 -2.875 0.554688 -3.429688 0.984375 -3.828125 C 1.421875 -4.234375 2.019531 -4.4375 2.78125 -4.4375 C 3.539062 -4.4375 4.132812 -4.234375 4.5625 -3.828125 C 5 -3.429688 5.21875 -2.875 5.21875 -2.15625 C 5.21875 -1.445312 5 -0.890625 4.5625 -0.484375 C 4.132812 -0.078125 3.539062 0.125 2.78125 0.125 Z "/>
</symbol>
<symbol overflow="visible" id="glyph0-17">
<path style="stroke:none;" d="M 0.28125 0 L 0.28125 -0.484375 L 0.90625 -0.484375 L 0.90625 -3.828125 L 0.28125 -3.828125 L 0.28125 -4.328125 L 2.34375 -4.328125 L 2.34375 -3.71875 C 2.507812 -3.96875 2.703125 -4.148438 2.921875 -4.265625 C 3.148438 -4.378906 3.4375 -4.4375 3.78125 -4.4375 C 4.257812 -4.4375 4.625 -4.289062 4.875 -4 C 5.125 -3.71875 5.25 -3.300781 5.25 -2.75 L 5.25 -0.484375 L 5.859375 -0.484375 L 5.859375 0 L 3.28125 0 L 3.28125 -0.484375 L 3.8125 -0.484375 L 3.8125 -2.796875 C 3.8125 -3.160156 3.765625 -3.410156 3.671875 -3.546875 C 3.578125 -3.691406 3.414062 -3.765625 3.1875 -3.765625 C 2.894531 -3.765625 2.679688 -3.65625 2.546875 -3.4375 C 2.410156 -3.226562 2.34375 -2.894531 2.34375 -2.4375 L 2.34375 -0.484375 L 2.859375 -0.484375 L 2.859375 0 Z "/>
</symbol>
<symbol overflow="visible" id="glyph0-18">
<path style="stroke:none;" d="M 0.828125 -3.828125 L 0.203125 -3.828125 L 0.203125 -4.328125 L 0.828125 -4.328125 L 0.828125 -5.671875 L 2.265625 -5.671875 L 2.265625 -4.328125 L 3.46875 -4.328125 L 3.46875 -3.828125 L 2.265625 -3.828125 L 2.265625 -1.1875 C 2.265625 -0.8125 2.289062 -0.578125 2.34375 -0.484375 C 2.40625 -0.390625 2.519531 -0.34375 2.6875 -0.34375 C 2.851562 -0.34375 2.976562 -0.398438 3.0625 -0.515625 C 3.144531 -0.628906 3.191406 -0.8125 3.203125 -1.0625 L 3.8125 -1.0625 C 3.78125 -0.625 3.65625 -0.316406 3.4375 -0.140625 C 3.226562 0.0351562 2.863281 0.125 2.34375 0.125 C 1.75 0.125 1.347656 0.03125 1.140625 -0.15625 C 0.929688 -0.34375 0.828125 -0.6875 0.828125 -1.1875 Z "/>
</symbol>
<symbol overflow="visible" id="glyph0-19">
<path style="stroke:none;" d="M 2.90625 -0.359375 C 3.226562 -0.359375 3.445312 -0.503906 3.5625 -0.796875 C 3.6875 -1.097656 3.75 -1.84375 3.75 -3.03125 C 3.75 -4.207031 3.6875 -4.945312 3.5625 -5.25 C 3.445312 -5.550781 3.226562 -5.703125 2.90625 -5.703125 C 2.570312 -5.703125 2.34375 -5.550781 2.21875 -5.25 C 2.101562 -4.957031 2.046875 -4.21875 2.046875 -3.03125 C 2.046875 -1.84375 2.101562 -1.097656 2.21875 -0.796875 C 2.34375 -0.503906 2.570312 -0.359375 2.90625 -0.359375 Z M 2.90625 0.125 C 2.09375 0.125 1.46875 -0.144531 1.03125 -0.6875 C 0.601562 -1.226562 0.390625 -2.007812 0.390625 -3.03125 C 0.390625 -4.039062 0.601562 -4.816406 1.03125 -5.359375 C 1.46875 -5.910156 2.09375 -6.1875 2.90625 -6.1875 C 3.707031 -6.1875 4.320312 -5.910156 4.75 -5.359375 C 5.1875 -4.816406 5.40625 -4.039062 5.40625 -3.03125 C 5.40625 -2.007812 5.1875 -1.226562 4.75 -0.6875 C 4.320312 -0.144531 3.707031 0.125 2.90625 0.125 Z "/>
</symbol>
<symbol overflow="visible" id="glyph0-20">
<path style="stroke:none;" d="M 0.390625 0 L 0.390625 -0.484375 L 1.171875 -0.484375 L 1.171875 -5.578125 L 0.390625 -5.578125 L 0.390625 -6.078125 L 5.796875 -6.078125 L 5.796875 -4.640625 L 5.25 -4.640625 L 5.25 -5.515625 L 2.734375 -5.515625 L 2.734375 -3.5625 L 4.28125 -3.5625 L 4.28125 -4.34375 L 4.84375 -4.34375 L 4.84375 -2.234375 L 4.28125 -2.234375 L 4.28125 -3.015625 L 2.734375 -3.015625 L 2.734375 -0.484375 L 3.703125 -0.484375 L 3.703125 0 Z "/>
</symbol>
<symbol overflow="visible" id="glyph0-21">
<path style="stroke:none;" d="M 0.390625 0 L 0.390625 -0.484375 L 1.171875 -0.484375 L 1.171875 -5.578125 L 0.390625 -5.578125 L 0.390625 -6.078125 L 3.84375 -6.078125 C 4.519531 -6.078125 5.054688 -5.914062 5.453125 -5.59375 C 5.859375 -5.269531 6.0625 -4.835938 6.0625 -4.296875 C 6.0625 -3.753906 5.859375 -3.320312 5.453125 -3 C 5.054688 -2.675781 4.519531 -2.515625 3.84375 -2.515625 L 2.734375 -2.515625 L 2.734375 -0.484375 L 3.71875 -0.484375 L 3.71875 0 Z M 2.734375 -3 L 3.1875 -3 C 3.539062 -3 3.820312 -3.113281 4.03125 -3.34375 C 4.238281 -3.582031 4.34375 -3.898438 4.34375 -4.296875 C 4.34375 -4.691406 4.238281 -5.003906 4.03125 -5.234375 C 3.820312 -5.460938 3.539062 -5.578125 3.1875 -5.578125 L 2.734375 -5.578125 Z "/>
</symbol>
<symbol overflow="visible" id="glyph0-22">
<path style="stroke:none;" d="M 0.640625 -0.296875 L 0.640625 -1.734375 L 1.15625 -1.734375 C 1.238281 -1.273438 1.425781 -0.929688 1.71875 -0.703125 C 2.007812 -0.484375 2.414062 -0.375 2.9375 -0.375 C 3.351562 -0.375 3.671875 -0.453125 3.890625 -0.609375 C 4.109375 -0.773438 4.21875 -1.007812 4.21875 -1.3125 C 4.21875 -1.5625 4.144531 -1.753906 4 -1.890625 C 3.851562 -2.023438 3.546875 -2.148438 3.078125 -2.265625 L 2.15625 -2.484375 C 1.5625 -2.640625 1.144531 -2.851562 0.90625 -3.125 C 0.664062 -3.394531 0.546875 -3.78125 0.546875 -4.28125 C 0.546875 -4.875 0.742188 -5.335938 1.140625 -5.671875 C 1.546875 -6.015625 2.109375 -6.1875 2.828125 -6.1875 C 3.179688 -6.1875 3.550781 -6.15625 3.9375 -6.09375 C 4.320312 -6.03125 4.71875 -5.941406 5.125 -5.828125 L 5.125 -4.484375 L 4.609375 -4.484375 C 4.535156 -4.898438 4.363281 -5.203125 4.09375 -5.390625 C 3.832031 -5.585938 3.457031 -5.6875 2.96875 -5.6875 C 2.5625 -5.6875 2.253906 -5.613281 2.046875 -5.46875 C 1.847656 -5.332031 1.75 -5.128906 1.75 -4.859375 C 1.75 -4.609375 1.816406 -4.414062 1.953125 -4.28125 C 2.097656 -4.144531 2.445312 -4.007812 3 -3.875 L 3.90625 -3.640625 C 4.46875 -3.503906 4.875 -3.285156 5.125 -2.984375 C 5.382812 -2.691406 5.515625 -2.28125 5.515625 -1.75 C 5.515625 -1.144531 5.300781 -0.679688 4.875 -0.359375 C 4.457031 -0.0351562 3.835938 0.125 3.015625 0.125 C 2.617188 0.125 2.222656 0.0859375 1.828125 0.015625 C 1.441406 -0.046875 1.046875 -0.148438 0.640625 -0.296875 Z "/>
</symbol>
<symbol overflow="visible" id="glyph0-23">
<path style="stroke:none;" d="M 3.578125 -1.953125 L 3.578125 -2.375 C 3.578125 -2.875 3.507812 -3.238281 3.375 -3.46875 C 3.25 -3.695312 3.039062 -3.8125 2.75 -3.8125 C 2.457031 -3.8125 2.25 -3.691406 2.125 -3.453125 C 2.007812 -3.210938 1.953125 -2.78125 1.953125 -2.15625 C 1.953125 -1.539062 2.007812 -1.113281 2.125 -0.875 C 2.25 -0.632812 2.457031 -0.515625 2.75 -0.515625 C 3.039062 -0.515625 3.25 -0.625 3.375 -0.84375 C 3.507812 -1.070312 3.578125 -1.441406 3.578125 -1.953125 Z M 5.015625 -0.484375 L 5.625 -0.484375 L 5.625 0 L 3.578125 0 L 3.578125 -0.546875 C 3.453125 -0.328125 3.285156 -0.160156 3.078125 -0.046875 C 2.867188 0.0664062 2.613281 0.125 2.3125 0.125 C 1.695312 0.125 1.210938 -0.078125 0.859375 -0.484375 C 0.515625 -0.898438 0.34375 -1.457031 0.34375 -2.15625 C 0.34375 -2.875 0.515625 -3.429688 0.859375 -3.828125 C 1.210938 -4.234375 1.695312 -4.4375 2.3125 -4.4375 C 2.613281 -4.4375 2.867188 -4.378906 3.078125 -4.265625 C 3.285156 -4.160156 3.453125 -4 3.578125 -3.78125 L 3.578125 -5.84375 L 2.953125 -5.84375 L 2.953125 -6.328125 L 5.015625 -6.328125 Z "/>
</symbol>
<symbol overflow="visible" id="glyph0-24">
<path style="stroke:none;" d="M 0.8125 -0.484375 L 0.8125 -5.84375 L 0.1875 -5.84375 L 0.1875 -6.328125 L 2.25 -6.328125 L 2.25 -3.78125 C 2.375 -4 2.535156 -4.160156 2.734375 -4.265625 C 2.941406 -4.378906 3.195312 -4.4375 3.5 -4.4375 C 4.113281 -4.4375 4.597656 -4.234375 4.953125 -3.828125 C 5.304688 -3.421875 5.484375 -2.863281 5.484375 -2.15625 C 5.484375 -1.457031 5.304688 -0.898438 4.953125 -0.484375 C 4.597656 -0.078125 4.113281 0.125 3.5 0.125 C 3.195312 0.125 2.941406 0.0664062 2.734375 -0.046875 C 2.535156 -0.160156 2.375 -0.328125 2.25 -0.546875 L 2.25 0 L 0.1875 0 L 0.1875 -0.484375 Z M 2.25 -1.953125 C 2.25 -1.441406 2.3125 -1.070312 2.4375 -0.84375 C 2.570312 -0.625 2.78125 -0.515625 3.0625 -0.515625 C 3.363281 -0.515625 3.570312 -0.632812 3.6875 -0.875 C 3.8125 -1.113281 3.875 -1.539062 3.875 -2.15625 C 3.875 -2.78125 3.8125 -3.210938 3.6875 -3.453125 C 3.570312 -3.691406 3.363281 -3.8125 3.0625 -3.8125 C 2.78125 -3.8125 2.570312 -3.695312 2.4375 -3.46875 C 2.3125 -3.238281 2.25 -2.875 2.25 -2.375 Z "/>
</symbol>
<symbol overflow="visible" id="glyph0-25">
<path style="stroke:none;" d="M 5.15625 -4.328125 L 5.15625 -0.484375 L 5.765625 -0.484375 L 5.765625 0 L 3.71875 0 L 3.71875 -0.609375 C 3.539062 -0.347656 3.34375 -0.160156 3.125 -0.046875 C 2.90625 0.0664062 2.625 0.125 2.28125 0.125 C 1.789062 0.125 1.421875 -0.015625 1.171875 -0.296875 C 0.929688 -0.585938 0.8125 -1.015625 0.8125 -1.578125 L 0.8125 -3.828125 L 0.1875 -3.828125 L 0.1875 -4.328125 L 2.25 -4.328125 L 2.25 -1.796875 C 2.25 -1.265625 2.289062 -0.925781 2.375 -0.78125 C 2.46875 -0.632812 2.632812 -0.5625 2.875 -0.5625 C 3.164062 -0.5625 3.378906 -0.664062 3.515625 -0.875 C 3.648438 -1.09375 3.71875 -1.4375 3.71875 -1.90625 L 3.71875 -3.828125 L 3.1875 -3.828125 L 3.1875 -4.328125 Z "/>
</symbol>
<symbol overflow="visible" id="glyph0-26">
<path style="stroke:none;" d="M 4.703125 -6.078125 L 4.703125 -5 L 1.453125 -5 L 1.453125 -3.671875 C 1.628906 -3.804688 1.828125 -3.910156 2.046875 -3.984375 C 2.265625 -4.054688 2.492188 -4.09375 2.734375 -4.09375 C 3.484375 -4.09375 4.078125 -3.898438 4.515625 -3.515625 C 4.953125 -3.140625 5.171875 -2.628906 5.171875 -1.984375 C 5.171875 -1.316406 4.953125 -0.796875 4.515625 -0.421875 C 4.078125 -0.0546875 3.46875 0.125 2.6875 0.125 C 2.363281 0.125 2.035156 0.09375 1.703125 0.03125 C 1.378906 -0.0195312 1.039062 -0.101562 0.6875 -0.21875 L 0.6875 -1.546875 L 1.171875 -1.546875 C 1.191406 -1.140625 1.296875 -0.835938 1.484375 -0.640625 C 1.671875 -0.453125 1.953125 -0.359375 2.328125 -0.359375 C 2.722656 -0.359375 3.015625 -0.488281 3.203125 -0.75 C 3.398438 -1.019531 3.5 -1.429688 3.5 -1.984375 C 3.5 -2.523438 3.40625 -2.925781 3.21875 -3.1875 C 3.03125 -3.457031 2.742188 -3.59375 2.359375 -3.59375 C 2.160156 -3.59375 1.976562 -3.546875 1.8125 -3.453125 C 1.65625 -3.367188 1.503906 -3.238281 1.359375 -3.0625 L 0.953125 -3.0625 L 0.953125 -6.078125 Z "/>
</symbol>
<symbol overflow="visible" id="glyph0-27">
<path style="stroke:none;" d="M 2.046875 -3.59375 C 2.222656 -3.738281 2.421875 -3.84375 2.640625 -3.90625 C 2.859375 -3.976562 3.097656 -4.015625 3.359375 -4.015625 C 3.972656 -4.015625 4.457031 -3.832031 4.8125 -3.46875 C 5.164062 -3.113281 5.34375 -2.617188 5.34375 -1.984375 C 5.34375 -1.304688 5.144531 -0.785156 4.75 -0.421875 C 4.351562 -0.0546875 3.785156 0.125 3.046875 0.125 C 2.222656 0.125 1.597656 -0.125 1.171875 -0.625 C 0.742188 -1.125 0.53125 -1.863281 0.53125 -2.84375 C 0.53125 -3.945312 0.765625 -4.78125 1.234375 -5.34375 C 1.710938 -5.90625 2.414062 -6.1875 3.34375 -6.1875 C 3.59375 -6.1875 3.851562 -6.164062 4.125 -6.125 C 4.40625 -6.082031 4.707031 -6.019531 5.03125 -5.9375 L 5.03125 -4.859375 L 4.53125 -4.859375 C 4.46875 -5.140625 4.34375 -5.347656 4.15625 -5.484375 C 3.96875 -5.628906 3.722656 -5.703125 3.421875 -5.703125 C 2.941406 -5.703125 2.59375 -5.535156 2.375 -5.203125 C 2.15625 -4.878906 2.046875 -4.34375 2.046875 -3.59375 Z M 2.953125 -0.359375 C 3.234375 -0.359375 3.429688 -0.472656 3.546875 -0.703125 C 3.671875 -0.941406 3.734375 -1.359375 3.734375 -1.953125 C 3.734375 -2.535156 3.671875 -2.941406 3.546875 -3.171875 C 3.429688 -3.410156 3.234375 -3.53125 2.953125 -3.53125 C 2.671875 -3.53125 2.472656 -3.410156 2.359375 -3.171875 C 2.242188 -2.941406 2.1875 -2.535156 2.1875 -1.953125 C 2.1875 -1.359375 2.242188 -0.941406 2.359375 -0.703125 C 2.472656 -0.472656 2.671875 -0.359375 2.953125 -0.359375 Z "/>
</symbol>
<symbol overflow="visible" id="glyph0-28">
<path style="stroke:none;" d="M 0.34375 0 L 0.34375 -0.484375 L 1.125 -0.484375 L 1.125 -5.578125 L 0.34375 -5.578125 L 0.34375 -6.078125 L 2.859375 -6.078125 L 4.59375 -2.171875 L 6.328125 -6.078125 L 8.828125 -6.078125 L 8.828125 -5.578125 L 8.046875 -5.578125 L 8.046875 -0.484375 L 8.828125 -0.484375 L 8.828125 0 L 5.703125 0 L 5.703125 -0.484375 L 6.484375 -0.484375 L 6.484375 -5.125 L 4.59375 -0.890625 L 3.5625 -0.890625 L 1.6875 -5.125 L 1.6875 -0.484375 L 2.46875 -0.484375 L 2.46875 0 Z "/>
</symbol>
<symbol overflow="visible" id="glyph0-29">
<path style="stroke:none;" d="M 0.390625 0 L 0.390625 -0.484375 L 1.171875 -0.484375 L 1.171875 -5.578125 L 0.390625 -5.578125 L 0.390625 -6.078125 L 3.984375 -6.078125 C 4.722656 -6.078125 5.28125 -5.953125 5.65625 -5.703125 C 6.03125 -5.453125 6.21875 -5.078125 6.21875 -4.578125 C 6.21875 -4.210938 6.085938 -3.921875 5.828125 -3.703125 C 5.566406 -3.492188 5.1875 -3.363281 4.6875 -3.3125 C 5.300781 -3.257812 5.769531 -3.097656 6.09375 -2.828125 C 6.414062 -2.554688 6.578125 -2.195312 6.578125 -1.75 C 6.578125 -1.15625 6.347656 -0.710938 5.890625 -0.421875 C 5.441406 -0.140625 4.734375 0 3.765625 0 Z M 2.734375 -3.53125 L 3.265625 -3.53125 C 3.734375 -3.53125 4.078125 -3.613281 4.296875 -3.78125 C 4.523438 -3.957031 4.640625 -4.222656 4.640625 -4.578125 C 4.640625 -4.921875 4.53125 -5.171875 4.3125 -5.328125 C 4.09375 -5.492188 3.742188 -5.578125 3.265625 -5.578125 L 2.734375 -5.578125 Z M 2.734375 -0.484375 L 3.3125 -0.484375 C 3.832031 -0.484375 4.21875 -0.585938 4.46875 -0.796875 C 4.71875 -1.003906 4.84375 -1.320312 4.84375 -1.75 C 4.84375 -2.1875 4.710938 -2.507812 4.453125 -2.71875 C 4.203125 -2.9375 3.820312 -3.046875 3.3125 -3.046875 L 2.734375 -3.046875 Z "/>
</symbol>
<symbol overflow="visible" id="glyph0-30">
<path style="stroke:none;" d="M 2.140625 -6.078125 L 3.046875 -6.078125 L 0.90625 0.765625 L 0 0.765625 Z "/>
</symbol>
<symbol overflow="visible" id="glyph0-31">
<path style="stroke:none;" d="M 4.03125 -5.25 L 3.578125 -5.25 C 3.554688 -5.457031 3.492188 -5.613281 3.390625 -5.71875 C 3.285156 -5.820312 3.140625 -5.875 2.953125 -5.875 C 2.734375 -5.875 2.578125 -5.796875 2.484375 -5.640625 C 2.390625 -5.484375 2.34375 -5.226562 2.34375 -4.875 L 2.34375 -4.328125 L 3.421875 -4.328125 L 3.421875 -3.828125 L 2.34375 -3.828125 L 2.34375 -0.484375 L 3.171875 -0.484375 L 3.171875 0 L 0.28125 0 L 0.28125 -0.484375 L 0.90625 -0.484375 L 0.90625 -3.828125 L 0.25 -3.828125 L 0.25 -4.328125 L 0.90625 -4.328125 L 0.90625 -4.859375 C 0.90625 -5.335938 1.054688 -5.703125 1.359375 -5.953125 C 1.660156 -6.203125 2.109375 -6.328125 2.703125 -6.328125 C 2.929688 -6.328125 3.15625 -6.3125 3.375 -6.28125 C 3.601562 -6.257812 3.820312 -6.222656 4.03125 -6.171875 Z "/>
</symbol>
<symbol overflow="visible" id="glyph0-32">
<path style="stroke:none;" d="M 2.25 -2.375 L 2.25 -1.953125 C 2.25 -1.441406 2.3125 -1.070312 2.4375 -0.84375 C 2.570312 -0.625 2.78125 -0.515625 3.0625 -0.515625 C 3.363281 -0.515625 3.570312 -0.632812 3.6875 -0.875 C 3.8125 -1.113281 3.875 -1.539062 3.875 -2.15625 C 3.875 -2.78125 3.8125 -3.210938 3.6875 -3.453125 C 3.570312 -3.691406 3.363281 -3.8125 3.0625 -3.8125 C 2.78125 -3.8125 2.570312 -3.695312 2.4375 -3.46875 C 2.3125 -3.238281 2.25 -2.875 2.25 -2.375 Z M 0.8125 -3.828125 L 0.1875 -3.828125 L 0.1875 -4.328125 L 2.25 -4.328125 L 2.25 -3.78125 C 2.375 -4 2.535156 -4.160156 2.734375 -4.265625 C 2.941406 -4.378906 3.195312 -4.4375 3.5 -4.4375 C 4.113281 -4.4375 4.597656 -4.234375 4.953125 -3.828125 C 5.304688 -3.421875 5.484375 -2.863281 5.484375 -2.15625 C 5.484375 -1.457031 5.304688 -0.898438 4.953125 -0.484375 C 4.597656 -0.078125 4.113281 0.125 3.5 0.125 C 3.195312 0.125 2.941406 0.0664062 2.734375 -0.046875 C 2.535156 -0.160156 2.375 -0.328125 2.25 -0.546875 L 2.25 1.234375 L 2.921875 1.234375 L 2.921875 1.734375 L 0.1875 1.734375 L 0.1875 1.234375 L 0.8125 1.234375 Z "/>
</symbol>
<symbol overflow="visible" id="glyph0-33">
<path style="stroke:none;" d="M 0.671875 -0.65625 C 0.671875 -0.863281 0.742188 -1.046875 0.890625 -1.203125 C 1.046875 -1.359375 1.234375 -1.4375 1.453125 -1.4375 C 1.660156 -1.4375 1.835938 -1.359375 1.984375 -1.203125 C 2.140625 -1.046875 2.21875 -0.863281 2.21875 -0.65625 C 2.21875 -0.445312 2.140625 -0.265625 1.984375 -0.109375 C 1.835938 0.046875 1.660156 0.125 1.453125 0.125 C 1.234375 0.125 1.046875 0.046875 0.890625 -0.109375 C 0.742188 -0.265625 0.671875 -0.445312 0.671875 -0.65625 Z "/>
</symbol>
</g>
</defs>
<g id="surface2">
<g style="fill:rgb(100%,100%,100%);fill-opacity:1;">
  <use xlink:href="#glyph0-1" x="30" y="27.824219"/>
  <use xlink:href="#glyph0-2" x="37" y="27.824219"/>
  <use xlink:href="#glyph0-3" x="42" y="27.824219"/>
  <use xlink:href="#glyph0-4" x="49" y="27.824219"/>
  <use xlink:href="#glyph0-5" x="52" y="27.824219"/>
  <use xlink:href="#glyph0-6" x="58" y="27.824219"/>
  <use xlink:href="#glyph0-7" x="61" y="27.824219"/>
  <use xlink:href="#glyph0-2" x="66" y="27.824219"/>
  <use xlink:href="#glyph0-8" x="71" y="27.824219"/>
  <use xlink:href="#glyph0-9" x="80" y="27.824219"/>
  <use xlink:href="#glyph0-10" x="85" y="27.824219"/>
  <use xlink:href="#glyph0-2" x="89" y="27.824219"/>
  <use xlink:href="#glyph0-4" x="94" y="27.824219"/>
  <use xlink:href="#glyph0-11" x="97" y="27.824219"/>
  <use xlink:href="#glyph0-12" x="105" y="27.824219"/>
  <use xlink:href="#glyph0-4" x="112" y="27.824219"/>
  <use xlink:href="#glyph0-13" x="115" y="27.824219"/>
  <use xlink:href="#glyph0-14" x="120" y="27.824219"/>
  <use xlink:href="#glyph0-15" x="123" y="27.824219"/>
  <use xlink:href="#glyph0-14" x="128" y="27.824219"/>
  <use xlink:href="#glyph0-16" x="131" y="27.824219"/>
  <use xlink:href="#glyph0-17" x="137" y="27.824219"/>
  <use xlink:href="#glyph0-4" x="143" y="27.824219"/>
  <use xlink:href="#glyph0-2" x="146" y="27.824219"/>
  <use xlink:href="#glyph0-18" x="151" y="27.824219"/>
  <use xlink:href="#glyph0-4" x="155" y="27.824219"/>
  <use xlink:href="#glyph0-5" x="158" y="27.824219"/>
  <use xlink:href="#glyph0-19" x="164" y="27.824219"/>
  <use xlink:href="#glyph0-4" x="170" y="27.824219"/>
  <use xlink:href="#glyph0-20" x="173" y="27.824219"/>
  <use xlink:href="#glyph0-21" x="179" y="27.824219"/>
  <use xlink:href="#glyph0-22" x="185" y="27.824219"/>
  <use xlink:href="#glyph0-4" x="191" y="27.824219"/>
  <use xlink:href="#glyph0-17" x="194" y="27.824219"/>
  <use xlink:href="#glyph0-9" x="200" y="27.824219"/>
  <use xlink:href="#glyph0-9" x="205" y="27.824219"/>
  <use xlink:href="#glyph0-23" x="210" y="27.824219"/>
  <use xlink:href="#glyph0-15" x="216" y="27.824219"/>
  <use xlink:href="#glyph0-4" x="221" y="27.824219"/>
  <use xlink:href="#glyph0-2" x="224" y="27.824219"/>
  <use xlink:href="#glyph0-24" x="229" y="27.824219"/>
  <use xlink:href="#glyph0-16" x="235" y="27.824219"/>
  <use xlink:href="#glyph0-25" x="241" y="27.824219"/>
  <use xlink:href="#glyph0-18" x="247" y="27.824219"/>
  <use xlink:href="#glyph0-4" x="251" y="27.824219"/>
  <use xlink:href="#glyph0-26" x="254" y="27.824219"/>
  <use xlink:href="#glyph0-27" x="260" y="27.824219"/>
  <use xlink:href="#glyph0-19" x="266" y="27.824219"/>
  <use xlink:href="#glyph0-4" x="272" y="27.824219"/>
  <use xlink:href="#glyph0-28" x="275" y="27.824219"/>
  <use xlink:href="#glyph0-29" x="284" y="27.824219"/>
  <use xlink:href="#glyph0-30" x="291" y="27.824219"/>
  <use xlink:href="#glyph0-15" x="294" y="27.824219"/>
  <use xlink:href="#glyph0-4" x="299" y="27.824219"/>
  <use xlink:href="#glyph0-24" x="302" y="27.824219"/>
  <use xlink:href="#glyph0-9" x="308" y="27.824219"/>
  <use xlink:href="#glyph0-31" x="313" y="27.824219"/>
  <use xlink:href="#glyph0-16" x="317" y="27.824219"/>
  <use xlink:href="#glyph0-10" x="323" y="27.824219"/>
  <use xlink:href="#glyph0-9" x="327" y="27.824219"/>
  <use xlink:href="#glyph0-4" x="332" y="27.824219"/>
  <use xlink:href="#glyph0-7" x="335" y="27.824219"/>
  <use xlink:href="#glyph0-16" x="340" y="27.824219"/>
  <use xlink:href="#glyph0-8" x="346" y="27.824219"/>
  <use xlink:href="#glyph0-32" x="355" y="27.824219"/>
  <use xlink:href="#glyph0-10" x="361" y="27.824219"/>
  <use xlink:href="#glyph0-9" x="365" y="27.824219"/>
  <use xlink:href="#glyph0-15" x="370" y="27.824219"/>
  <use xlink:href="#glyph0-15" x="375" y="27.824219"/>
  <use xlink:href="#glyph0-14" x="380" y="27.824219"/>
  <use xlink:href="#glyph0-16" x="383" y="27.824219"/>
  <use xlink:href="#glyph0-17" x="389" y="27.824219"/>
  <use xlink:href="#glyph0-33" x="395" y="27.824219"/>
</g>
</g>
</svg>
