<?xml version="1.0" encoding="UTF-8"?>
<svg xmlns="http://www.w3.org/2000/svg" xmlns:xlink="http://www.w3.org/1999/xlink" width="854pt" height="480pt" viewBox="0 0 854 480" version="1.1">
<defs>
<g>
<symbol overflow="visible" id="glyph0-0">
<path style="stroke:none;" d="M 0.265625 0.9375 L 0.265625 -3.71875 L 2.90625 -3.71875 L 2.90625 0.9375 Z M 0.5625 0.640625 L 2.609375 0.640625 L 2.609375 -3.421875 L 0.5625 -3.421875 Z "/>
</symbol>
<symbol overflow="visible" id="glyph0-1">
<path style="stroke:none;" d="M 1.046875 -3.421875 L 1.046875 -0.421875 L 1.671875 -0.421875 C 2.203125 -0.421875 2.585938 -0.539062 2.828125 -0.78125 C 3.078125 -1.03125 3.203125 -1.410156 3.203125 -1.921875 C 3.203125 -2.441406 3.078125 -2.820312 2.828125 -3.0625 C 2.585938 -3.300781 2.203125 -3.421875 1.671875 -3.421875 Z M 0.515625 -3.84375 L 1.59375 -3.84375 C 2.332031 -3.84375 2.875 -3.6875 3.21875 -3.375 C 3.570312 -3.070312 3.75 -2.585938 3.75 -1.921875 C 3.75 -1.265625 3.570312 -0.78125 3.21875 -0.46875 C 2.875 -0.15625 2.332031 0 1.59375 0 L 0.515625 0 Z "/>
</symbol>
<symbol overflow="visible" id="glyph0-2">
<path style="stroke:none;" d="M 2.96875 -1.5625 L 2.96875 -1.328125 L 0.78125 -1.328125 C 0.800781 -1.003906 0.898438 -0.753906 1.078125 -0.578125 C 1.253906 -0.410156 1.5 -0.328125 1.8125 -0.328125 C 2 -0.328125 2.175781 -0.347656 2.34375 -0.390625 C 2.519531 -0.441406 2.691406 -0.507812 2.859375 -0.59375 L 2.859375 -0.140625 C 2.691406 -0.0664062 2.515625 -0.015625 2.328125 0.015625 C 2.148438 0.0546875 1.972656 0.078125 1.796875 0.078125 C 1.328125 0.078125 0.957031 -0.0546875 0.6875 -0.328125 C 0.425781 -0.597656 0.296875 -0.960938 0.296875 -1.421875 C 0.296875 -1.890625 0.421875 -2.257812 0.671875 -2.53125 C 0.929688 -2.8125 1.273438 -2.953125 1.703125 -2.953125 C 2.097656 -2.953125 2.40625 -2.828125 2.625 -2.578125 C 2.851562 -2.328125 2.96875 -1.988281 2.96875 -1.5625 Z M 2.5 -1.703125 C 2.488281 -1.960938 2.410156 -2.171875 2.265625 -2.328125 C 2.128906 -2.484375 1.945312 -2.5625 1.71875 -2.5625 C 1.445312 -2.5625 1.234375 -2.484375 1.078125 -2.328125 C 0.921875 -2.179688 0.828125 -1.972656 0.796875 -1.703125 Z "/>
</symbol>
<symbol overflow="visible" id="glyph0-3">
<path style="stroke:none;" d="M 0.5 -4.015625 L 0.96875 -4.015625 L 0.96875 0 L 0.5 0 Z "/>
</symbol>
<symbol overflow="visible" id="glyph0-4">
<path style="stroke:none;" d="M 0.96875 -3.703125 L 0.96875 -2.890625 L 1.9375 -2.890625 L 1.9375 -2.515625 L 0.96875 -2.515625 L 0.96875 -0.953125 C 0.96875 -0.710938 1 -0.554688 1.0625 -0.484375 C 1.125 -0.421875 1.253906 -0.390625 1.453125 -0.390625 L 1.9375 -0.390625 L 1.9375 0 L 1.453125 0 C 1.085938 0 0.832031 -0.0664062 0.6875 -0.203125 C 0.550781 -0.335938 0.484375 -0.585938 0.484375 -0.953125 L 0.484375 -2.515625 L 0.140625 -2.515625 L 0.140625 -2.890625 L 0.484375 -2.890625 L 0.484375 -3.703125 Z "/>
</symbol>
<symbol overflow="visible" id="glyph0-5">
<path style="stroke:none;" d="M 1.8125 -1.453125 C 1.425781 -1.453125 1.160156 -1.40625 1.015625 -1.3125 C 0.867188 -1.226562 0.796875 -1.082031 0.796875 -0.875 C 0.796875 -0.707031 0.847656 -0.570312 0.953125 -0.46875 C 1.066406 -0.375 1.21875 -0.328125 1.40625 -0.328125 C 1.675781 -0.328125 1.890625 -0.414062 2.046875 -0.59375 C 2.203125 -0.78125 2.28125 -1.03125 2.28125 -1.34375 L 2.28125 -1.453125 Z M 2.75 -1.640625 L 2.75 0 L 2.28125 0 L 2.28125 -0.4375 C 2.175781 -0.257812 2.039062 -0.128906 1.875 -0.046875 C 1.71875 0.0351562 1.519531 0.078125 1.28125 0.078125 C 0.988281 0.078125 0.753906 -0.00390625 0.578125 -0.171875 C 0.398438 -0.335938 0.3125 -0.5625 0.3125 -0.84375 C 0.3125 -1.164062 0.421875 -1.410156 0.640625 -1.578125 C 0.859375 -1.742188 1.179688 -1.828125 1.609375 -1.828125 L 2.28125 -1.828125 L 2.28125 -1.875 C 2.28125 -2.09375 2.207031 -2.257812 2.0625 -2.375 C 1.914062 -2.5 1.71875 -2.5625 1.46875 -2.5625 C 1.300781 -2.5625 1.140625 -2.539062 0.984375 -2.5 C 0.828125 -2.457031 0.675781 -2.394531 0.53125 -2.3125 L 0.53125 -2.75 C 0.707031 -2.820312 0.875 -2.875 1.03125 -2.90625 C 1.195312 -2.9375 1.359375 -2.953125 1.515625 -2.953125 C 1.929688 -2.953125 2.238281 -2.84375 2.4375 -2.625 C 2.644531 -2.414062 2.75 -2.085938 2.75 -1.640625 Z "/>
</symbol>
<symbol overflow="visible" id="glyph0-6">
<path style="stroke:none;" d=""/>
</symbol>
<symbol overflow="visible" id="glyph0-7">
<path style="stroke:none;" d="M 0.5625 -2.390625 L 3.859375 -2.390625 L 3.859375 -1.96875 L 0.5625 -1.96875 Z M 0.5625 -1.34375 L 3.859375 -1.34375 L 3.859375 -0.90625 L 0.5625 -0.90625 Z "/>
</symbol>
<symbol overflow="visible" id="glyph0-8">
<path style="stroke:none;" d="M 1.671875 -3.5 C 1.410156 -3.5 1.210938 -3.367188 1.078125 -3.109375 C 0.941406 -2.847656 0.875 -2.453125 0.875 -1.921875 C 0.875 -1.390625 0.941406 -0.992188 1.078125 -0.734375 C 1.210938 -0.472656 1.410156 -0.34375 1.671875 -0.34375 C 1.941406 -0.34375 2.144531 -0.472656 2.28125 -0.734375 C 2.414062 -0.992188 2.484375 -1.390625 2.484375 -1.921875 C 2.484375 -2.453125 2.414062 -2.847656 2.28125 -3.109375 C 2.144531 -3.367188 1.941406 -3.5 1.671875 -3.5 Z M 1.671875 -3.921875 C 2.109375 -3.921875 2.441406 -3.75 2.671875 -3.40625 C 2.898438 -3.0625 3.015625 -2.566406 3.015625 -1.921875 C 3.015625 -1.273438 2.898438 -0.78125 2.671875 -0.4375 C 2.441406 -0.09375 2.109375 0.078125 1.671875 0.078125 C 1.242188 0.078125 0.914062 -0.09375 0.6875 -0.4375 C 0.457031 -0.78125 0.34375 -1.273438 0.34375 -1.921875 C 0.34375 -2.566406 0.457031 -3.0625 0.6875 -3.40625 C 0.914062 -3.75 1.242188 -3.921875 1.671875 -3.921875 Z "/>
</symbol>
<symbol overflow="visible" id="glyph0-9">
<path style="stroke:none;" d="M 0.5625 -0.65625 L 1.109375 -0.65625 L 1.109375 0 L 0.5625 0 Z "/>
</symbol>
<symbol overflow="visible" id="glyph0-10">
<path style="stroke:none;" d="M 0.65625 -0.4375 L 1.5 -0.4375 L 1.5 -3.375 L 0.578125 -3.1875 L 0.578125 -3.671875 L 1.5 -3.84375 L 2.015625 -3.84375 L 2.015625 -0.4375 L 2.875 -0.4375 L 2.875 0 L 0.65625 0 Z "/>
</symbol>
<symbol overflow="visible" id="glyph0-11">
<path style="stroke:none;" d="M 2.34375 -2.796875 L 2.34375 -2.359375 C 2.207031 -2.421875 2.066406 -2.46875 1.921875 -2.5 C 1.773438 -2.539062 1.625 -2.5625 1.46875 -2.5625 C 1.238281 -2.5625 1.0625 -2.523438 0.9375 -2.453125 C 0.820312 -2.378906 0.765625 -2.269531 0.765625 -2.125 C 0.765625 -2.019531 0.804688 -1.9375 0.890625 -1.875 C 0.972656 -1.8125 1.144531 -1.75 1.40625 -1.6875 L 1.5625 -1.65625 C 1.894531 -1.582031 2.132812 -1.476562 2.28125 -1.34375 C 2.425781 -1.21875 2.5 -1.035156 2.5 -0.796875 C 2.5 -0.523438 2.390625 -0.3125 2.171875 -0.15625 C 1.960938 0 1.671875 0.078125 1.296875 0.078125 C 1.140625 0.078125 0.976562 0.0625 0.8125 0.03125 C 0.644531 0 0.46875 -0.046875 0.28125 -0.109375 L 0.28125 -0.59375 C 0.457031 -0.5 0.628906 -0.429688 0.796875 -0.390625 C 0.972656 -0.347656 1.144531 -0.328125 1.3125 -0.328125 C 1.53125 -0.328125 1.695312 -0.363281 1.8125 -0.4375 C 1.9375 -0.507812 2 -0.617188 2 -0.765625 C 2 -0.890625 1.957031 -0.984375 1.875 -1.046875 C 1.789062 -1.117188 1.601562 -1.1875 1.3125 -1.25 L 1.140625 -1.296875 C 0.847656 -1.359375 0.632812 -1.453125 0.5 -1.578125 C 0.375 -1.703125 0.3125 -1.878906 0.3125 -2.109375 C 0.3125 -2.378906 0.40625 -2.585938 0.59375 -2.734375 C 0.789062 -2.878906 1.066406 -2.953125 1.421875 -2.953125 C 1.585938 -2.953125 1.75 -2.9375 1.90625 -2.90625 C 2.0625 -2.882812 2.207031 -2.847656 2.34375 -2.796875 Z "/>
</symbol>
<symbol overflow="visible" id="glyph1-0">
<path style="stroke:none;" d="M 0.5 0 L 0.5 -3.765625 L 2.671875 -3.765625 L 2.671875 0 Z M 0.765625 -3.5 L 0.765625 -0.265625 L 2.390625 -0.265625 L 2.390625 -3.5 Z "/>
</symbol>
<symbol overflow="visible" id="glyph1-1">
<path style="stroke:none;" d="M 1.71875 0.046875 C 1.488281 0.046875 1.269531 0.00390625 1.0625 -0.078125 C 0.863281 -0.160156 0.695312 -0.273438 0.5625 -0.421875 C 0.425781 -0.578125 0.332031 -0.757812 0.28125 -0.96875 C 0.519531 -1.125 0.742188 -1.238281 0.953125 -1.3125 C 1.171875 -1.382812 1.394531 -1.421875 1.625 -1.421875 C 1.851562 -1.421875 2.0625 -1.382812 2.25 -1.3125 C 2.445312 -1.25 2.613281 -1.164062 2.75 -1.0625 C 2.78125 -1.175781 2.796875 -1.296875 2.796875 -1.421875 C 2.796875 -1.640625 2.75 -1.828125 2.65625 -1.984375 C 2.570312 -2.148438 2.445312 -2.273438 2.28125 -2.359375 C 2.125 -2.453125 1.941406 -2.5 1.734375 -2.5 C 1.492188 -2.5 1.28125 -2.441406 1.09375 -2.328125 C 0.914062 -2.210938 0.78125 -2.046875 0.6875 -1.828125 L 0.3125 -2.015625 C 0.414062 -2.273438 0.59375 -2.484375 0.84375 -2.640625 C 1.09375 -2.804688 1.382812 -2.890625 1.71875 -2.890625 C 1.976562 -2.890625 2.207031 -2.84375 2.40625 -2.75 C 2.613281 -2.664062 2.785156 -2.546875 2.921875 -2.390625 C 3.078125 -2.554688 3.253906 -2.679688 3.453125 -2.765625 C 3.648438 -2.847656 3.882812 -2.890625 4.15625 -2.890625 C 4.457031 -2.890625 4.71875 -2.828125 4.9375 -2.703125 C 5.164062 -2.578125 5.34375 -2.398438 5.46875 -2.171875 C 5.59375 -1.953125 5.65625 -1.703125 5.65625 -1.421875 C 5.65625 -1.128906 5.59375 -0.875 5.46875 -0.65625 C 5.34375 -0.4375 5.164062 -0.265625 4.9375 -0.140625 C 4.707031 -0.015625 4.441406 0.046875 4.140625 0.046875 C 3.867188 0.046875 3.628906 0.00390625 3.421875 -0.078125 C 3.222656 -0.171875 3.0625 -0.296875 2.9375 -0.453125 C 2.800781 -0.296875 2.628906 -0.171875 2.421875 -0.078125 C 2.210938 0.00390625 1.976562 0.046875 1.71875 0.046875 Z M 3.28125 -1.421875 C 3.28125 -1.203125 3.238281 -1 3.15625 -0.8125 C 3.257812 -0.675781 3.394531 -0.5625 3.5625 -0.46875 C 3.726562 -0.382812 3.921875 -0.34375 4.140625 -0.34375 C 4.460938 -0.34375 4.71875 -0.4375 4.90625 -0.625 C 5.09375 -0.820312 5.1875 -1.082031 5.1875 -1.40625 C 5.1875 -1.738281 5.09375 -2.003906 4.90625 -2.203125 C 4.726562 -2.398438 4.484375 -2.5 4.171875 -2.5 C 3.960938 -2.5 3.769531 -2.460938 3.59375 -2.390625 C 3.425781 -2.328125 3.28125 -2.207031 3.15625 -2.03125 C 3.238281 -1.84375 3.28125 -1.640625 3.28125 -1.421875 Z M 0.78125 -0.8125 C 0.882812 -0.65625 1.015625 -0.535156 1.171875 -0.453125 C 1.335938 -0.378906 1.523438 -0.34375 1.734375 -0.34375 C 1.929688 -0.34375 2.097656 -0.375 2.234375 -0.4375 C 2.378906 -0.507812 2.492188 -0.601562 2.578125 -0.71875 C 2.460938 -0.8125 2.328125 -0.882812 2.171875 -0.9375 C 2.015625 -1 1.828125 -1.03125 1.609375 -1.03125 C 1.453125 -1.03125 1.300781 -1.007812 1.15625 -0.96875 C 1.019531 -0.925781 0.894531 -0.875 0.78125 -0.8125 Z "/>
</symbol>
<symbol overflow="visible" id="glyph1-2">
<path style="stroke:none;" d="M -1.609375 -3.3125 C -1.804688 -3.3125 -1.972656 -3.351562 -2.109375 -3.4375 C -2.253906 -3.519531 -2.367188 -3.632812 -2.453125 -3.78125 C -2.535156 -3.9375 -2.578125 -4.109375 -2.578125 -4.296875 C -2.578125 -4.484375 -2.535156 -4.648438 -2.453125 -4.796875 C -2.367188 -4.941406 -2.253906 -5.0625 -2.109375 -5.15625 C -1.972656 -5.25 -1.804688 -5.296875 -1.609375 -5.296875 C -1.398438 -5.296875 -1.222656 -5.25 -1.078125 -5.15625 C -0.929688 -5.0625 -0.820312 -4.9375 -0.75 -4.78125 C -0.675781 -4.632812 -0.640625 -4.46875 -0.640625 -4.28125 C -0.640625 -4.09375 -0.675781 -3.925781 -0.75 -3.78125 C -0.832031 -3.632812 -0.945312 -3.519531 -1.09375 -3.4375 C -1.238281 -3.351562 -1.410156 -3.3125 -1.609375 -3.3125 Z M -1.59375 -3.65625 C -1.4375 -3.65625 -1.304688 -3.710938 -1.203125 -3.828125 C -1.109375 -3.953125 -1.0625 -4.097656 -1.0625 -4.265625 C -1.0625 -4.453125 -1.109375 -4.609375 -1.203125 -4.734375 C -1.296875 -4.867188 -1.425781 -4.9375 -1.59375 -4.9375 C -1.769531 -4.9375 -1.90625 -4.875 -2 -4.75 C -2.101562 -4.625 -2.15625 -4.46875 -2.15625 -4.28125 C -2.15625 -4.101562 -2.101562 -3.953125 -2 -3.828125 C -1.90625 -3.710938 -1.769531 -3.65625 -1.59375 -3.65625 Z "/>
</symbol>
<symbol overflow="visible" id="glyph1-3">
<path style="stroke:none;" d="M -1.9375 2.46875 L -1.9375 0.265625 L -1.46875 0.265625 L -1.46875 2.109375 L -0.8125 2.109375 L -0.8125 2.46875 Z "/>
</symbol>
<symbol overflow="visible" id="glyph1-4">
<path style="stroke:none;" d="M 1.78125 0.046875 C 1.5 0.046875 1.242188 -0.015625 1.015625 -0.140625 C 0.785156 -0.273438 0.609375 -0.457031 0.484375 -0.6875 C 0.359375 -0.914062 0.296875 -1.175781 0.296875 -1.46875 C 0.296875 -1.757812 0.351562 -2.03125 0.46875 -2.28125 C 0.59375 -2.53125 0.757812 -2.734375 0.96875 -2.890625 L 1.234375 -2.546875 C 1.085938 -2.421875 0.972656 -2.269531 0.890625 -2.09375 C 0.804688 -1.925781 0.765625 -1.722656 0.765625 -1.484375 C 0.765625 -1.128906 0.859375 -0.847656 1.046875 -0.640625 C 1.234375 -0.441406 1.476562 -0.34375 1.78125 -0.34375 C 2.082031 -0.34375 2.328125 -0.441406 2.515625 -0.640625 C 2.703125 -0.847656 2.796875 -1.128906 2.796875 -1.484375 C 2.796875 -1.722656 2.75 -1.925781 2.65625 -2.09375 C 2.570312 -2.269531 2.445312 -2.421875 2.28125 -2.546875 L 2.546875 -2.890625 C 2.691406 -2.785156 2.816406 -2.660156 2.921875 -2.515625 C 3.035156 -2.367188 3.125 -2.203125 3.1875 -2.015625 C 3.25 -1.835938 3.28125 -1.65625 3.28125 -1.46875 C 3.28125 -1.164062 3.210938 -0.898438 3.078125 -0.671875 C 2.953125 -0.441406 2.773438 -0.265625 2.546875 -0.140625 C 2.328125 -0.015625 2.070312 0.046875 1.78125 0.046875 Z "/>
</symbol>
<symbol overflow="visible" id="glyph1-5">
<path style="stroke:none;" d="M 0.484375 0 L 0.484375 -4.125 C 0.484375 -4.375 0.429688 -4.570312 0.328125 -4.71875 C 0.222656 -4.863281 0.0625 -4.9375 -0.15625 -4.9375 C -0.34375 -4.9375 -0.492188 -4.867188 -0.609375 -4.734375 C -0.722656 -4.609375 -0.78125 -4.414062 -0.78125 -4.15625 L -0.78125 -4.078125 L -1.234375 -4.078125 L -1.234375 -4.140625 C -1.234375 -4.378906 -1.1875 -4.582031 -1.09375 -4.75 C -1.007812 -4.925781 -0.882812 -5.0625 -0.71875 -5.15625 C -0.550781 -5.25 -0.363281 -5.296875 -0.15625 -5.296875 C 0.1875 -5.296875 0.453125 -5.179688 0.640625 -4.953125 C 0.828125 -4.734375 0.921875 -4.429688 0.921875 -4.046875 L 0.921875 0 Z "/>
</symbol>
<symbol overflow="visible" id="glyph1-6">
<path style="stroke:none;" d="M 1.765625 0.046875 C 1.460938 0.046875 1.203125 -0.015625 0.984375 -0.140625 C 0.765625 -0.265625 0.59375 -0.4375 0.46875 -0.65625 C 0.351562 -0.882812 0.296875 -1.140625 0.296875 -1.421875 C 0.296875 -1.691406 0.351562 -1.9375 0.46875 -2.15625 C 0.59375 -2.382812 0.765625 -2.5625 0.984375 -2.6875 C 1.210938 -2.820312 1.476562 -2.890625 1.78125 -2.890625 C 2.082031 -2.890625 2.34375 -2.820312 2.5625 -2.6875 C 2.789062 -2.5625 2.960938 -2.390625 3.078125 -2.171875 C 3.203125 -1.953125 3.265625 -1.703125 3.265625 -1.421875 C 3.265625 -1.128906 3.203125 -0.875 3.078125 -0.65625 C 2.953125 -0.4375 2.773438 -0.265625 2.546875 -0.140625 C 2.316406 -0.015625 2.054688 0.046875 1.765625 0.046875 Z M 1.765625 -0.328125 C 1.972656 -0.328125 2.148438 -0.375 2.296875 -0.46875 C 2.453125 -0.5625 2.570312 -0.6875 2.65625 -0.84375 C 2.738281 -1.007812 2.78125 -1.195312 2.78125 -1.40625 C 2.78125 -1.726562 2.6875 -1.988281 2.5 -2.1875 C 2.320312 -2.394531 2.078125 -2.5 1.765625 -2.5 C 1.617188 -2.5 1.484375 -2.46875 1.359375 -2.40625 C 1.484375 -2.28125 1.585938 -2.132812 1.671875 -1.96875 C 1.753906 -1.8125 1.796875 -1.625 1.796875 -1.40625 C 1.796875 -1.195312 1.753906 -1.007812 1.671875 -0.84375 C 1.597656 -0.675781 1.5 -0.53125 1.375 -0.40625 C 1.5 -0.351562 1.628906 -0.328125 1.765625 -0.328125 Z M 0.71875 -1.40625 C 0.71875 -1.238281 0.742188 -1.085938 0.796875 -0.953125 C 0.859375 -0.828125 0.941406 -0.71875 1.046875 -0.625 C 1.253906 -0.820312 1.359375 -1.082031 1.359375 -1.40625 C 1.359375 -1.550781 1.332031 -1.6875 1.28125 -1.8125 C 1.226562 -1.945312 1.144531 -2.078125 1.03125 -2.203125 C 0.925781 -2.097656 0.847656 -1.976562 0.796875 -1.84375 C 0.742188 -1.707031 0.71875 -1.5625 0.71875 -1.40625 Z "/>
</symbol>
<symbol overflow="visible" id="glyph1-7">
<path style="stroke:none;" d="M 0.109375 1.703125 C -0.0546875 1.703125 -0.191406 1.648438 -0.296875 1.546875 C -0.398438 1.453125 -0.453125 1.316406 -0.453125 1.140625 C -0.453125 0.960938 -0.398438 0.820312 -0.296875 0.71875 C -0.191406 0.625 -0.0546875 0.578125 0.109375 0.578125 C 0.285156 0.578125 0.425781 0.625 0.53125 0.71875 C 0.644531 0.820312 0.703125 0.960938 0.703125 1.140625 C 0.703125 1.316406 0.644531 1.453125 0.53125 1.546875 C 0.425781 1.648438 0.285156 1.703125 0.109375 1.703125 Z M 0.125 1.421875 C 0.207031 1.421875 0.273438 1.394531 0.328125 1.34375 C 0.378906 1.289062 0.40625 1.222656 0.40625 1.140625 C 0.40625 1.054688 0.378906 0.988281 0.328125 0.9375 C 0.273438 0.882812 0.207031 0.859375 0.125 0.859375 C 0.0390625 0.859375 -0.0234375 0.882812 -0.078125 0.9375 C -0.128906 0.988281 -0.15625 1.054688 -0.15625 1.140625 C -0.15625 1.328125 -0.0625 1.421875 0.125 1.421875 Z M -1.21875 2.46875 L -1.21875 0.265625 L -0.75 0.265625 L -0.75 2.109375 L -0.09375 2.109375 L -0.09375 2.46875 Z "/>
</symbol>
</g>
</defs>
<g id="surface76">
<g style="fill:rgb(61.176471%,86.27451%,92.156863%);fill-opacity:1;">
  <use xlink:href="#glyph0-1" x="30" y="26.987305"/>
  <use xlink:href="#glyph0-2" x="34" y="26.987305"/>
  <use xlink:href="#glyph0-3" x="37" y="26.987305"/>
  <use xlink:href="#glyph0-4" x="38" y="26.987305"/>
  <use xlink:href="#glyph0-5" x="40" y="26.987305"/>
  <use xlink:href="#glyph0-6" x="43" y="26.987305"/>
  <use xlink:href="#glyph0-4" x="45" y="26.987305"/>
  <use xlink:href="#glyph0-6" x="47" y="26.987305"/>
  <use xlink:href="#glyph0-7" x="49" y="26.987305"/>
  <use xlink:href="#glyph0-6" x="53" y="26.987305"/>
  <use xlink:href="#glyph0-8" x="55" y="26.987305"/>
  <use xlink:href="#glyph0-9" x="58" y="26.987305"/>
  <use xlink:href="#glyph0-10" x="60" y="26.987305"/>
  <use xlink:href="#glyph0-6" x="63" y="26.987305"/>
  <use xlink:href="#glyph0-11" x="65" y="26.987305"/>
  <use xlink:href="#glyph0-6" x="68" y="26.987305"/>
</g>
<g style="fill:rgb(61.176471%,86.27451%,92.156863%);fill-opacity:1;">
  <use xlink:href="#glyph1-1" x="70" y="26.987305"/>
  <use xlink:href="#glyph1-2" x="76" y="26.987305"/>
  <use xlink:href="#glyph1-3" x="76" y="26.987305"/>
  <use xlink:href="#glyph1-4" x="76" y="26.987305"/>
  <use xlink:href="#glyph1-5" x="80" y="26.987305"/>
  <use xlink:href="#glyph1-6" x="81" y="26.987305"/>
  <use xlink:href="#glyph1-2" x="85" y="26.987305"/>
  <use xlink:href="#glyph1-7" x="84" y="26.987305"/>
</g>
</g>
</svg>
