<?xml version="1.0" encoding="UTF-8"?>
<svg xmlns="http://www.w3.org/2000/svg" xmlns:xlink="http://www.w3.org/1999/xlink" width="854pt" height="480pt" viewBox="0 0 854 480" version="1.1">
<defs>
<g>
<symbol overflow="visible" id="glyph0-0">
<path style="stroke:none;" d="M 0.265625 0.9375 L 0.265625 -3.71875 L 2.90625 -3.71875 L 2.90625 0.9375 Z M 0.5625 0.640625 L 2.609375 0.640625 L 2.609375 -3.421875 L 0.5625 -3.421875 Z "/>
</symbol>
<symbol overflow="visible" id="glyph0-1">
<path style="stroke:none;" d="M 1.3125 -0.265625 L 1.78125 -0.265625 C 2.28125 -0.265625 2.664062 -0.40625 2.9375 -0.6875 C 3.207031 -0.976562 3.34375 -1.390625 3.34375 -1.921875 C 3.34375 -2.460938 3.207031 -2.875 2.9375 -3.15625 C 2.664062 -3.4375 2.28125 -3.578125 1.78125 -3.578125 L 1.3125 -3.578125 Z M 0.296875 0 L 0.296875 -0.265625 L 0.78125 -0.265625 L 0.78125 -3.578125 L 0.296875 -3.578125 L 0.296875 -3.84375 L 1.828125 -3.84375 C 2.484375 -3.84375 3 -3.671875 3.375 -3.328125 C 3.75 -2.992188 3.9375 -2.523438 3.9375 -1.921875 C 3.9375 -1.316406 3.75 -0.84375 3.375 -0.5 C 3 -0.164062 2.484375 0 1.828125 0 Z "/>
</symbol>
<symbol overflow="visible" id="glyph0-2">
<path style="stroke:none;" d="M 2.859375 -1.328125 L 0.8125 -1.328125 L 0.8125 -1.296875 C 0.8125 -0.929688 0.878906 -0.65625 1.015625 -0.46875 C 1.160156 -0.28125 1.367188 -0.1875 1.640625 -0.1875 C 1.847656 -0.1875 2.019531 -0.238281 2.15625 -0.34375 C 2.289062 -0.457031 2.382812 -0.617188 2.4375 -0.828125 L 2.8125 -0.828125 C 2.738281 -0.523438 2.597656 -0.296875 2.390625 -0.140625 C 2.191406 0.00390625 1.925781 0.078125 1.59375 0.078125 C 1.195312 0.078125 0.875 -0.0507812 0.625 -0.3125 C 0.382812 -0.582031 0.265625 -0.9375 0.265625 -1.375 C 0.265625 -1.800781 0.382812 -2.144531 0.625 -2.40625 C 0.863281 -2.675781 1.175781 -2.8125 1.5625 -2.8125 C 1.976562 -2.8125 2.296875 -2.679688 2.515625 -2.421875 C 2.734375 -2.171875 2.847656 -1.804688 2.859375 -1.328125 Z M 2.296875 -1.59375 C 2.285156 -1.914062 2.21875 -2.15625 2.09375 -2.3125 C 1.96875 -2.476562 1.789062 -2.5625 1.5625 -2.5625 C 1.34375 -2.5625 1.171875 -2.476562 1.046875 -2.3125 C 0.921875 -2.15625 0.84375 -1.914062 0.8125 -1.59375 Z "/>
</symbol>
<symbol overflow="visible" id="glyph0-3">
<path style="stroke:none;" d="M 1.078125 -0.265625 L 1.53125 -0.265625 L 1.53125 0 L 0.15625 0 L 0.15625 -0.265625 L 0.609375 -0.265625 L 0.609375 -3.734375 L 0.15625 -3.734375 L 0.15625 -4.015625 L 1.078125 -4.015625 Z "/>
</symbol>
<symbol overflow="visible" id="glyph0-4">
<path style="stroke:none;" d="M 0.5625 -2.46875 L 0.15625 -2.46875 L 0.15625 -2.734375 L 0.5625 -2.734375 L 0.5625 -3.59375 L 1.046875 -3.59375 L 1.046875 -2.734375 L 1.9375 -2.734375 L 1.9375 -2.46875 L 1.046875 -2.46875 L 1.046875 -0.71875 C 1.046875 -0.488281 1.066406 -0.34375 1.109375 -0.28125 C 1.160156 -0.21875 1.242188 -0.1875 1.359375 -0.1875 C 1.484375 -0.1875 1.570312 -0.222656 1.625 -0.296875 C 1.6875 -0.367188 1.71875 -0.484375 1.71875 -0.640625 L 2.078125 -0.640625 C 2.066406 -0.390625 2 -0.207031 1.875 -0.09375 C 1.75 0.0195312 1.566406 0.078125 1.328125 0.078125 C 1.046875 0.078125 0.847656 0.0195312 0.734375 -0.09375 C 0.617188 -0.21875 0.5625 -0.425781 0.5625 -0.71875 Z "/>
</symbol>
<symbol overflow="visible" id="glyph0-5">
<path style="stroke:none;" d="M 2.109375 -0.859375 L 2.109375 -1.4375 L 1.484375 -1.4375 C 1.253906 -1.4375 1.082031 -1.382812 0.96875 -1.28125 C 0.851562 -1.1875 0.796875 -1.035156 0.796875 -0.828125 C 0.796875 -0.628906 0.851562 -0.472656 0.96875 -0.359375 C 1.082031 -0.253906 1.238281 -0.203125 1.4375 -0.203125 C 1.632812 -0.203125 1.796875 -0.257812 1.921875 -0.375 C 2.046875 -0.5 2.109375 -0.660156 2.109375 -0.859375 Z M 2.578125 -1.71875 L 2.578125 -0.265625 L 3 -0.265625 L 3 0 L 2.109375 0 L 2.109375 -0.296875 C 1.992188 -0.171875 1.867188 -0.078125 1.734375 -0.015625 C 1.597656 0.046875 1.4375 0.078125 1.25 0.078125 C 0.945312 0.078125 0.707031 0 0.53125 -0.15625 C 0.351562 -0.320312 0.265625 -0.546875 0.265625 -0.828125 C 0.265625 -1.109375 0.363281 -1.328125 0.5625 -1.484375 C 0.769531 -1.640625 1.0625 -1.71875 1.4375 -1.71875 L 2.109375 -1.71875 L 2.109375 -1.90625 C 2.109375 -2.113281 2.039062 -2.273438 1.90625 -2.390625 C 1.78125 -2.503906 1.601562 -2.5625 1.375 -2.5625 C 1.1875 -2.5625 1.035156 -2.515625 0.921875 -2.421875 C 0.816406 -2.335938 0.75 -2.210938 0.71875 -2.046875 L 0.46875 -2.046875 L 0.46875 -2.609375 C 0.632812 -2.671875 0.796875 -2.71875 0.953125 -2.75 C 1.109375 -2.789062 1.257812 -2.8125 1.40625 -2.8125 C 1.789062 -2.8125 2.082031 -2.71875 2.28125 -2.53125 C 2.476562 -2.34375 2.578125 -2.070312 2.578125 -1.71875 Z "/>
</symbol>
<symbol overflow="visible" id="glyph0-6">
<path style="stroke:none;" d=""/>
</symbol>
</g>
</defs>
<g id="surface106">
<g style="fill:rgb(100%,100%,0%);fill-opacity:1;">
  <use xlink:href="#glyph0-1" x="30" y="24.898438"/>
  <use xlink:href="#glyph0-2" x="34" y="24.898438"/>
  <use xlink:href="#glyph0-3" x="37" y="24.898438"/>
  <use xlink:href="#glyph0-4" x="39" y="24.898438"/>
  <use xlink:href="#glyph0-5" x="41" y="24.898438"/>
  <use xlink:href="#glyph0-6" x="44" y="24.898438"/>
  <use xlink:href="#glyph0-4" x="46" y="24.898438"/>
</g>
</g>
</svg>
